<?xml version="1.0" encoding="UTF-8" standalone="no"?>
<!-- Created with Inkscape (http://www.inkscape.org/) -->

<svg
   xmlns:dc="http://purl.org/dc/elements/1.1/"
   xmlns:cc="http://creativecommons.org/ns#"
   xmlns:rdf="http://www.w3.org/1999/02/22-rdf-syntax-ns#"
   xmlns:svg="http://www.w3.org/2000/svg"
   xmlns="http://www.w3.org/2000/svg"
   xmlns:xlink="http://www.w3.org/1999/xlink"
   xmlns:inkscape="http://www.inkscape.org/namespaces/inkscape"
   version="1.0"
   width="96"
   height="96"
   id="svg2"
   style="display:inline">
  <defs
     id="defs4">
    <linearGradient
       x1="7.1904788"
       y1="6.9551144"
       x2="7.1904788"
       y2="18.319494"
       id="linearGradient5004"
       gradientUnits="userSpaceOnUse"
       gradientTransform="scale(1.1467263,0.8720476)">
      <stop
         id="stop5006"
         style="stop-color:#323232;stop-opacity:1"
         offset="0" />
      <stop
         id="stop5008"
         style="stop-color:#787878;stop-opacity:1"
         offset="1" />
    </linearGradient>
    <linearGradient
       x1="8"
       y1="3"
       x2="8"
       y2="19.031219"
       id="linearGradient2975"
       xlink:href="#linearGradient5004"
       gradientUnits="userSpaceOnUse"
       gradientTransform="matrix(4,0,0,4,4,-70)" />
    <clipPath
       id="clipPath2986">
      <path
         d="m -100,-74 0,96 96,0 0,-96 -96,0 z m 48,16 c 17.673112,0 32,14.326888 32,32 0,17.673112 -14.326888,32 -32,32 -17.673112,0 -32,-14.326888 -32,-32 0,-17.673112 14.326888,-32 32,-32 z m 0,8 c -13.254834,0 -24,10.745166 -24,24 0,13.254832 10.745166,24 24,24 13.254832,0 24,-10.745168 24,-24 0,-13.254834 -10.745168,-24 -24,-24 z m 0,4 c 2.216,0 4,1.784 4,4 l 0,9 7.875,-4.5 c 1.919112,-1.108 4.392,-0.419112 5.5,1.5 1.108,1.919112 0.419112,4.392 -1.5,5.5 l -7.75,4.5 7.75,4.5 c 1.919112,1.108 2.608,3.580888 1.5,5.5 -1.108,1.919112 -3.580888,2.608 -5.5,1.5 L -48,-19 l 0,9 c 0,2.216 -1.784,4 -4,4 -2.216,0 -4,-1.784 -4,-4 l 0,-9 -7.875,4.5 c -1.919112,1.108 -4.392,0.419112 -5.5,-1.5 -1.108,-1.919112 -0.419112,-4.392 1.5,-5.5 l 7.75,-4.5 -7.75,-4.5 c -1.919112,-1.108 -2.608,-3.580888 -1.5,-5.5 1.108,-1.919112 3.580888,-2.608 5.5,-1.5 l 7.875,4.5 0,-9 c 0,-2.216 1.784,-4 4,-4 z"
         inkscape:connector-curvature="0"
         id="path2988"
         style="opacity:0.3;color:#000000;fill:#ff0000;fill-opacity:1;fill-rule:nonzero;stroke:none;stroke-width:4;marker:none;visibility:visible;display:inline;overflow:visible;enable-background:accumulate" />
    </clipPath>
    <filter
       color-interpolation-filters="sRGB"
       id="filter3762">
      <feGaussianBlur
         id="feGaussianBlur3764"
         stdDeviation="0.96" />
    </filter>
  </defs>
  <metadata
     id="metadata7">
    <rdf:RDF>
      <cc:Work
         rdf:about="">
        <dc:format>image/svg+xml</dc:format>
        <dc:type
           rdf:resource="http://purl.org/dc/dcmitype/StillImage" />
        <dc:title />
      </cc:Work>
    </rdf:RDF>
  </metadata>
  <g
     transform="translate(0,74)"
     id="layer1">
    <path
       d="m -52,-58 c -17.673112,0 -32,14.326888 -32,32 0,17.673112 14.326888,32 32,32 17.673112,0 32,-14.326888 32,-32 0,-17.673112 -14.326888,-32 -32,-32 z m 0,8 c 13.254832,0 24,10.745166 24,24 0,13.254832 -10.745168,24 -24,24 -13.254834,0 -24,-10.745168 -24,-24 0,-13.254834 10.745166,-24 24,-24 z m 0,4 c -2.216,0 -4,1.784 -4,4 l 0,9 -7.875,-4.5 c -1.919112,-1.108 -4.392,-0.419112 -5.5,1.5 -1.108,1.919112 -0.419112,4.392 1.5,5.5 l 7.75,4.5 -7.75,4.5 c -1.919112,1.108 -2.608,3.580888 -1.5,5.5 1.108,1.919112 3.580888,2.608 5.5,1.5 L -56,-19 l 0,9 c 0,2.216 1.784,4 4,4 2.216,0 4,-1.784 4,-4 l 0,-9 7.875,4.5 c 1.919112,1.108 4.392,0.419112 5.5,-1.5 1.108,-1.919112 0.419112,-4.392 -1.5,-5.5 l -7.75,-4.5 7.75,-4.5 c 1.919112,-1.108 2.608,-3.580888 1.5,-5.5 -1.108,-1.919112 -3.580888,-2.608 -5.5,-1.5 L -48,-33 l 0,-9 c 0,-2.216 -1.784,-4 -4,-4 z"
       inkscape:connector-curvature="0"
       transform="translate(100,0)"
       clip-path="url(#clipPath2986)"
       id="path2977"
       style="opacity:0.2;color:#000000;fill:none;stroke:#ffffff;stroke-width:4;stroke-miterlimit:4;stroke-dasharray:none;marker:none;visibility:visible;display:inline;overflow:visible;filter:url(#filter3762);enable-background:accumulate" />
    <path
       d="M 48,-58 C 30.326888,-58 16,-43.673112 16,-26 16,-8.326888 30.326888,6 48,6 65.673112,6 80,-8.326888 80,-26 80,-43.673112 65.673112,-58 48,-58 z m 0,8 c 13.254832,0 24,10.745166 24,24 0,13.254832 -10.745168,24 -24,24 -13.254834,0 -24,-10.745168 -24,-24 0,-13.254834 10.745166,-24 24,-24 z m 0,4 c -2.216,0 -4,1.784 -4,4 l 0,9 -7.875,-4.5 c -1.919112,-1.108 -4.392,-0.419112 -5.5,1.5 -1.108,1.919112 -0.419112,4.392 1.5,5.5 l 7.75,4.5 -7.75,4.5 c -1.919112,1.108 -2.608,3.580888 -1.5,5.5 1.108,1.919112 3.580888,2.608 5.5,1.5 L 44,-19 l 0,9 c 0,2.216 1.784,4 4,4 2.216,0 4,-1.784 4,-4 l 0,-9 7.875,4.5 c 1.919112,1.108 4.392,0.419112 5.5,-1.5 1.108,-1.919112 0.419112,-4.392 -1.5,-5.5 l -7.75,-4.5 7.75,-4.5 c 1.919112,-1.108 2.608,-3.580888 1.5,-5.5 -1.108,-1.919112 -3.580888,-2.608 -5.5,-1.5 L 52,-33 l 0,-9 c 0,-2.216 -1.784,-4 -4,-4 z"
       inkscape:connector-curvature="0"
       id="path2932"
       style="color:#000000;fill:url(#linearGradient2975);fill-opacity:1;stroke:none;stroke-width:1;marker:none;visibility:visible;display:inline;overflow:visible;enable-background:accumulate" />
    <path
       d="m 48,-58 c -17.673112,0 -32,14.326888 -32,32 0,0.680364 0.08316,1.330184 0.125,2 1.044973,-16.729381 14.882251,-30 31.875,-30 16.992748,0 30.830028,13.270619 31.875,30 C 79.91684,-24.669816 80,-25.319636 80,-26 80,-43.673112 65.673112,-58 48,-58 z m 0,12 c -2.216,0 -4,1.784 -4,4 l 0,4 c 0,-2.216 1.784,-4 4,-4 2.216,0 4,1.784 4,4 l 0,-4 c 0,-2.216 -1.784,-4 -4,-4 z m -13.375,8 c -1.557063,-0.183728 -3.169,0.560666 -4,2 -0.735935,1.274677 -0.683462,2.798922 0,4 1.108,-1.919112 3.580888,-2.608 5.5,-1.5 L 44,-29 l 0,-4 -7.875,-4.5 c -0.479778,-0.277 -0.980979,-0.438757 -1.5,-0.5 z m 26.75,0 c -0.51902,0.06124 -1.020224,0.223 -1.5,0.5 L 52,-33 l 0,4 7.875,-4.5 c 1.919112,-1.108 4.392,-0.419112 5.5,1.5 0.683464,-1.201078 0.735936,-2.725323 0,-4 -0.831,-1.439334 -2.442936,-2.18373 -4,-2 z m -25,14 -4.25,2.5 c -1.919112,1.108 -2.608,3.580888 -1.5,5.5 0.345536,-0.607228 0.855564,-1.127936 1.5,-1.5 l 7.75,-4.5 -3.5,-2 z m 23.25,0 -3.5,2 7.75,4.5 c 0.644436,0.37208 1.154464,0.892772 1.5,1.5 1.108,-1.919112 0.419112,-4.392 -1.5,-5.5 l -4.25,-2.5 z m -35.5,0.5 C 24.095115,-23.009636 24,-22.497884 24,-22 24,-8.745168 34.745166,2 48,2 61.254832,2 72,-8.745168 72,-22 72,-22.497884 71.90488,-23.009636 71.875,-23.5 70.64596,-11.397856 60.426404,-2 48,-2 35.573593,-2 25.35404,-11.397856 24.125,-23.5 z"
       inkscape:connector-curvature="0"
       id="path3728"
       style="opacity:0.3;color:#000000;fill:#000000;fill-opacity:1;stroke:none;stroke-width:1;marker:none;visibility:visible;display:inline;overflow:visible;enable-background:accumulate" />
    <path
       d="m 48,-50 c -13.254834,0 -24,10.745166 -24,24 0,0.497884 0.09511,1.009636 0.125,1.5 C 25.35404,-36.602146 35.573593,-46 48,-46 c 12.426404,0 22.64596,9.397854 23.875,21.5 C 71.904884,-24.990364 72,-25.502116 72,-26 72,-39.254834 61.254832,-50 48,-50 z m -17.375,18 c -1.108,1.919112 -0.419112,4.392 1.5,5.5 l 4.25,2.5 3.5,-2 -7.75,-4.5 c -0.644436,-0.372065 -1.154463,-0.892773 -1.5,-1.5 z m 34.75,0 c -0.34552,0.607227 -0.855564,1.127935 -1.5,1.5 l -7.75,4.5 3.5,2 4.25,-2.5 c 1.919112,-1.108 2.608,-3.580888 1.5,-5.5 z m -49.25,8 c -0.04184,0.669816 -0.125,1.319636 -0.125,2 0,17.673112 14.326888,32 32,32 17.673112,0 32,-14.326888 32,-32 0,-0.680364 -0.08316,-1.330184 -0.125,-2 C 78.830028,-7.27062 64.992748,6 48,6 31.007251,6 17.169973,-7.27062 16.125,-24 z m 27.875,5 -7.875,4.5 c -1.919112,1.108 -4.392,0.419112 -5.5,-1.5 -0.683462,1.20108 -0.735935,2.725324 0,4 1.108,1.919112 3.580888,2.608 5.5,1.5 L 44,-15 l 0,-4 z m 8,0 0,4 7.875,4.5 c 1.919112,1.108 4.392,0.419112 5.5,-1.5 0.735936,-1.274676 0.683464,-2.79892 0,-4 -1.108,1.919112 -3.580888,2.608 -5.5,1.5 L 52,-19 z m -8,9 0,4 c 0,2.216 1.784,4 4,4 2.216,0 4,-1.784 4,-4 l 0,-4 c 0,2.216 -1.784,4 -4,4 -2.216,0 -4,-1.784 -4,-4 z"
       inkscape:connector-curvature="0"
       id="path3738"
       style="opacity:0.3;color:#000000;fill:#ffffff;fill-opacity:1;stroke:none;stroke-width:1;marker:none;visibility:visible;display:inline;overflow:visible;enable-background:accumulate" />
    <rect
       width="96"
       height="96"
       x="-100"
       y="-74"
       id="rect2959"
       style="opacity:0.3;color:#000000;fill:#ff0000;fill-opacity:1;fill-rule:nonzero;stroke:none;stroke-width:4;marker:none;visibility:visible;display:inline;overflow:visible;enable-background:accumulate" />
    <path
       d="M 48,16 C 30.326888,16 16,30.326888 16,48 16,65.673112 30.326888,80 48,80 65.673112,80 80,65.673112 80,48 80,30.326888 65.673112,16 48,16 z m 0,1.96875 C 64.604051,17.96875 78.03125,31.395949 78.03125,48 78.03125,64.604051 64.604051,78.03125 48,78.03125 31.395949,78.03125 17.96875,64.604051 17.96875,48 17.96875,31.395949 31.395949,17.96875 48,17.96875 z m 0,4.0625 C 33.676105,22.03125 22.03125,33.676105 22.03125,48 22.03125,62.323893 33.676105,73.96875 48,73.96875 62.323893,73.96875 73.96875,62.323893 73.96875,48 73.96875,33.676105 62.323893,22.03125 48,22.03125 z M 48,24 C 61.254832,24 72,34.745166 72,48 72,61.254832 61.254832,72 48,72 34.745166,72 24,61.254832 24,48 24,34.745166 34.745166,24 48,24 z m 0,4 c -2.216,0 -4,1.784 -4,4 l 0,9 -7.875,-4.5 c -1.919112,-1.108 -4.392,-0.419112 -5.5,1.5 -1.108,1.919112 -0.419112,4.392 1.5,5.5 l 7.75,4.5 -7.75,4.5 c -1.919112,1.108 -2.608,3.580888 -1.5,5.5 1.108,1.919112 3.580888,2.608 5.5,1.5 L 44,55 l 0,9 c 0,2.216 1.784,4 4,4 2.216,0 4,-1.784 4,-4 l 0,-9 7.875,4.5 c 1.919112,1.108 4.392,0.419112 5.5,-1.5 1.108,-1.919112 0.419112,-4.392 -1.5,-5.5 l -7.75,-4.5 7.75,-4.5 c 1.919112,-1.108 2.608,-3.580888 1.5,-5.5 -1.108,-1.919112 -3.580888,-2.608 -5.5,-1.5 L 52,41 52,32 c 0,-2.216 -1.784,-4 -4,-4 z m 0,1.96875 c 1.154332,0 2.03125,0.876918 2.03125,2.03125 l 0,9 a 1.9783274,1.9783274 0 0 0 2.9375,1.71875 l 7.875,-4.5 a 1.9783274,1.9783274 0 0 0 0.03125,0 c 0.974407,-0.562574 2.207994,-0.211659 2.78125,0.78125 0.562574,0.974407 0.211659,2.207994 -0.78125,2.78125 l -7.75,4.5 a 1.9783274,1.9783274 0 0 0 0,3.4375 l 7.75,4.5 c 0.992909,0.573256 1.343824,1.806843 0.78125,2.78125 -0.573256,0.992909 -1.806843,1.343824 -2.78125,0.78125 a 1.9783274,1.9783274 0 0 0 -0.03125,0 l -7.875,-4.5 A 1.9783274,1.9783274 0 0 0 50.03125,55 l 0,9 c 0,1.154332 -0.876918,2.03125 -2.03125,2.03125 -1.154332,0 -2.03125,-0.876918 -2.03125,-2.03125 l 0,-9 a 1.9783274,1.9783274 0 0 0 -2.9375,-1.71875 l -7.875,4.5 a 1.9783274,1.9783274 0 0 0 -0.03125,0 C 34.150593,58.343824 32.917006,57.992909 32.34375,57 31.781176,56.025593 32.132091,54.792006 33.125,54.21875 l 7.75,-4.5 a 1.9783274,1.9783274 0 0 0 0,-3.4375 l -7.75,-4.5 C 32.132091,41.207994 31.781176,39.974407 32.34375,39 32.917006,38.007091 34.150593,37.656176 35.125,38.21875 a 1.9783274,1.9783274 0 0 0 0.03125,0 l 7.875,4.5 A 1.9783274,1.9783274 0 0 0 45.96875,41 l 0,-9 c 0,-1.154332 0.876918,-2.03125 2.03125,-2.03125 z"
       inkscape:connector-curvature="0"
       transform="translate(0,-74)"
       id="path3766"
       style="opacity:0.3;color:#000000;fill:#000000;fill-opacity:1;stroke:none;stroke-width:1;marker:none;visibility:visible;display:inline;overflow:visible;enable-background:accumulate" />
  </g>
</svg>
