<?xml version="1.0" encoding="UTF-8" standalone="no"?>
<!-- Created with Inkscape (http://www.inkscape.org/) -->

<svg
   xmlns:dc="http://purl.org/dc/elements/1.1/"
   xmlns:cc="http://creativecommons.org/ns#"
   xmlns:rdf="http://www.w3.org/1999/02/22-rdf-syntax-ns#"
   xmlns:svg="http://www.w3.org/2000/svg"
   xmlns="http://www.w3.org/2000/svg"
   xmlns:xlink="http://www.w3.org/1999/xlink"
   xmlns:inkscape="http://www.inkscape.org/namespaces/inkscape"
   version="1.0"
   width="96"
   height="96"
   id="svg2408"
   style="display:inline">
  <defs
     id="defs2410">
    <linearGradient
       x1="11"
       y1="3.9374998"
       x2="11"
       y2="18.083122"
       id="linearGradient3904"
       gradientUnits="userSpaceOnUse">
      <stop
         id="stop3906"
         style="stop-color:#323232;stop-opacity:1"
         offset="0" />
      <stop
         id="stop3908"
         style="stop-color:#787878;stop-opacity:1"
         offset="1" />
    </linearGradient>
    <linearGradient
       x1="56"
       y1="16"
       x2="56"
       y2="80"
       id="linearGradient3683"
       xlink:href="#linearGradient3904"
       gradientUnits="userSpaceOnUse"
       gradientTransform="matrix(1.17449,0,0,1.17449,2.9052478,-10.847576)" />
  </defs>
  <metadata
     id="metadata2413">
    <rdf:RDF>
      <cc:Work
         rdf:about="">
        <dc:format>image/svg+xml</dc:format>
        <dc:type
           rdf:resource="http://purl.org/dc/dcmitype/StillImage" />
        <dc:title />
      </cc:Work>
    </rdf:RDF>
  </metadata>
  <g
     id="layer4">
    <path
       d="M 59.280769,8 C 51.083465,8 44.44375,14.162855 44.44375,21.746635 c 0.01991,0.869113 0.02566,1.839639 0.116827,2.920673 -1.297287,0.685511 -1.468702,3.372422 -0.311539,6.075 0.44621,1.042127 1.059543,1.884402 1.67452,2.570192 0.0205,0.02293 0.05726,0.05554 0.07788,0.07789 0.146795,0.714052 0.250836,1.2585 0.428366,2.063942 0.549966,1.635452 2.827601,4.715571 4.828846,7.360096 0.199573,2.040065 0.206822,4.066006 -0.194712,6.386539 -5.76026,4.73717 -20.505734,6.856417 -20.483654,11.760576 L 28.594227,73.73462 c 0,2.612412 3.935704,5.003935 10.202884,6.620193 l 0.895673,3.465865 a 2.1553325,2.1364467 0 0 0 1.362981,1.401923 c 0.278174,0.106696 0.444825,0.364742 1.207212,0.584135 4.01604,1.155736 10.141875,1.947115 17.017788,1.947115 6.875915,0 13.040692,-0.791379 17.056731,-1.947115 0.762387,-0.219393 0.967984,-0.477494 1.246154,-0.584135 a 2.1553325,2.1364467 0 0 0 1.285096,-1.324038 l 1.051442,-3.69952 c 6.114064,-1.613703 10.04712,-3.888803 10.04712,-6.464428 L 87.98125,60.961538 c -0.0235,-4.197304 -14.832962,-6.856407 -20.522596,-11.760576 -0.230364,-1.878567 -0.273039,-3.718464 -0.155769,-5.56875 1.819504,-2.782105 4.219996,-6.367339 4.828846,-8.177885 0.223768,-0.937634 0.332461,-1.570352 0.50625,-2.375481 0.537298,-0.650968 1.044238,-1.410202 1.440865,-2.336538 1.0989,-2.566489 0.964225,-5.046992 -0.155769,-5.880289 0.07826,-1.115165 0.161994,-2.16229 0.194711,-3.115384 C 74.1178,14.162856 67.478073,8 59.280769,8 z m -30.764423,9.969231 c -6.147978,0 -11.1375,4.592934 -11.1375,10.280769 0.01494,0.651834 0.0095,1.408936 0.07789,2.219712 -0.972966,0.514133 -1.101525,2.529316 -0.233654,4.55625 0.334657,0.781595 0.784921,1.432774 1.246154,1.947115 0.01536,0.0172 0.06242,0.02219 0.07788,0.03894 0.110098,0.53554 0.178391,0.953613 0.311539,1.557693 0.412474,1.22659 2.120701,3.546413 3.621634,5.529807 0.149681,1.530049 0.145381,3.010562 -0.155769,4.750962 -4.320195,3.552877 -15.3598291,5.161782 -15.343269,8.839904 L 5.5014433,67.27019 c 0,1.959308 2.9323059,3.733478 7.6326927,4.945673 L 13.796154,74.825 a 1.6164994,1.602335 0 0 0 1.0125,1.090385 c 0.208631,0.08002 0.362825,0.224879 0.934615,0.389423 2.870735,0.826141 7.210224,1.387533 12.072116,1.440865 -1.025417,-1.10385 -1.713462,-2.420416 -1.713462,-4.011058 a 2.5024688,2.5024688 0 0 1 0.03894,-0.389423 l 1.947116,-12.383654 0.03894,-0.389423 0.07788,0 c 0.18525,-2.241925 1.726556,-3.857483 3.38798,-4.945673 1.769088,-1.158706 3.904441,-2.034814 6.152885,-2.920673 0.735912,-0.28994 1.482113,-0.602229 2.219712,-0.895673 -2.069524,-0.891006 -4.031778,-1.836222 -5.335097,-2.959615 -0.172771,-1.408924 -0.165836,-2.779113 -0.07788,-4.166827 1.364629,-2.086579 3.126055,-4.756035 3.582692,-6.113942 0.167826,-0.703226 0.259081,-1.187499 0.389423,-1.791347 0.402973,-0.488225 0.753972,-1.057653 1.051443,-1.752403 0.824175,-1.924868 0.762104,-3.775508 -0.07788,-4.400481 0.05869,-0.836375 0.131235,-1.66066 0.155769,-2.375481 4e-6,-5.687836 -4.989523,-10.280769 -11.1375,-10.280769 z"
       inkscape:connector-curvature="0"
       id="path3798"
       style="fill:url(#linearGradient3683);fill-opacity:1;stroke:none;display:inline;enable-background:new" />
    <path
       d="M 59.280769,8 C 51.083465,8 44.44375,14.162855 44.44375,21.746635 c 0.01991,0.869113 0.02566,1.839639 0.116827,2.920673 -1.297287,0.685511 -1.468702,3.372422 -0.311539,6.075 0.44621,1.042127 1.059543,1.884402 1.67452,2.570192 0.0205,0.02293 0.05726,0.05554 0.07788,0.07789 0.146795,0.714052 0.250836,1.2585 0.428366,2.063942 0.549966,1.635452 2.827601,4.715571 4.828846,7.360096 0.199573,2.040065 0.206822,4.066006 -0.194712,6.386539 -5.76026,4.73717 -20.505734,6.856417 -20.483654,11.760576 L 28.594227,73.73462 c 0,2.612412 3.935704,5.003935 10.202884,6.620193 l 0.895673,3.465865 a 2.1553325,2.1364467 0 0 0 1.362981,1.401923 c 0.278174,0.106696 0.444825,0.364742 1.207212,0.584135 4.01604,1.155736 10.141875,1.947115 17.017788,1.947115 6.875915,0 13.040692,-0.791379 17.056731,-1.947115 0.762387,-0.219393 0.967984,-0.477494 1.246154,-0.584135 a 2.1553325,2.1364467 0 0 0 1.285096,-1.324038 l 1.051442,-3.69952 c 6.114064,-1.613703 10.04712,-3.888803 10.04712,-6.464428 L 87.98125,60.961538 c -0.0235,-4.197304 -14.832962,-6.856407 -20.522596,-11.760576 -0.230364,-1.878567 -0.273039,-3.718464 -0.155769,-5.56875 1.819504,-2.782105 4.219996,-6.367339 4.828846,-8.177885 0.223768,-0.937634 0.332461,-1.570352 0.50625,-2.375481 0.537298,-0.650968 1.044238,-1.410202 1.440865,-2.336538 1.0989,-2.566489 0.964225,-5.046992 -0.155769,-5.880289 0.07826,-1.115165 0.161994,-2.16229 0.194711,-3.115384 C 74.1178,14.162856 67.478073,8 59.280769,8 z m 0,2.414423 c 6.964824,0 12.376784,5.10618 12.422596,11.254327 1.95e-4,0.02614 0,0.0517 0,0.07789 -0.03171,0.858324 -0.07851,1.858742 -0.155769,2.959615 a 2.4001653,2.4001653 0 0 0 0.778846,1.947115 c -0.06064,-0.04475 0.100939,0.126823 0.116827,0.584135 0.02119,0.609751 -0.158765,1.576739 -0.584134,2.570192 -0.292147,0.682319 -0.664493,1.236412 -1.090385,1.752404 a 2.4001653,2.4001653 0 0 0 -0.467308,1.0125 c -0.172542,0.799356 -0.285839,1.400185 -0.467307,2.180769 -0.174917,0.48619 -0.862151,1.769128 -1.713462,3.154327 -0.871951,1.418784 -1.926891,3.000033 -2.842788,4.400481 a 2.4001653,2.4001653 0 0 0 -0.389423,1.168269 c -0.125947,1.987196 -0.05433,4.005126 0.194711,6.036058 a 2.4001653,2.4001653 0 0 0 0.817789,1.51875 c 3.462317,2.984338 8.686871,4.763398 13.045673,6.542308 2.179401,0.889454 4.144438,1.731453 5.374038,2.492307 0.6148,0.380427 1.034799,0.774076 1.207212,0.973558 0.03316,0.03836 0.02523,0.021 0.03894,0.03894 0.0035,0.0097 -0.0032,0.03145 0,0.03894 a 2.4001653,2.4001653 0 0 0 0.03894,0.194711 l 1.947116,12.422596 c 0,0.06622 -0.18292,0.673927 -1.596635,1.557693 -1.413715,0.883766 -3.748411,1.801958 -6.659135,2.570192 a 2.4001653,2.4001653 0 0 0 -1.674519,1.674519 l -0.973558,3.465866 c -0.832898,0.338469 -0.6105,0.401772 -0.973557,0.50625 -3.668577,1.055744 -9.702943,1.830288 -16.394712,1.830288 -6.691767,0 -12.683228,-0.773404 -16.355769,-1.830288 -0.35407,-0.101886 0.01254,-0.114223 -0.973558,-0.50625 L 41.133654,79.770673 A 2.4001653,2.4001653 0 0 0 39.38125,78.018269 c -2.97406,-0.766986 -5.30836,-1.698529 -6.737019,-2.609134 -1.42866,-0.910606 -1.635577,-1.573509 -1.635577,-1.67452 l 1.947115,-12.422596 a 2.4001653,2.4001653 0 0 0 0.03894,-0.350481 c -1.03e-4,-0.02264 0.103356,-0.472142 1.285096,-1.246153 1.181742,-0.774011 3.100109,-1.603495 5.257211,-2.453366 4.314206,-1.699741 9.525199,-3.29663 13.045673,-6.191827 a 2.4001653,2.4001653 0 0 0 0.856731,-1.440865 c 0.442373,-2.556553 0.408726,-4.860869 0.194712,-7.048558 a 2.4001653,2.4001653 0 0 0 -0.467308,-1.207211 c -0.994442,-1.314096 -2.038467,-2.733267 -2.881731,-3.972116 -0.829041,-1.217953 -1.440741,-2.362796 -1.557692,-2.687019 -0.002,-0.0056 -0.03724,-0.03387 -0.03894,-0.03894 -0.13286,-0.617864 -0.220796,-1.121581 -0.350481,-1.752404 A 2.4001653,2.4001653 0 0 0 47.753845,31.75481 c -0.195273,-0.211556 -0.215035,-0.23591 -0.03894,-0.03894 -0.492409,-0.549109 -0.92899,-1.167431 -1.246154,-1.908173 -0.448431,-1.04732 -0.618798,-2.097087 -0.584135,-2.725961 0.01733,-0.314437 0.0747,-0.442848 0.07789,-0.467308 a 2.4001653,2.4001653 0 0 0 0.973558,-2.141827 c -0.08061,-0.955943 -0.05793,-1.839005 -0.07789,-2.725961 0,-0.01309 -4.9e-5,-0.02586 0,-0.03894 0.02298,-6.165585 5.442965,-11.293269 12.422596,-11.293269 z"
       inkscape:connector-curvature="0"
       id="path3698"
       style="opacity:0.1;fill:#000000;fill-opacity:1;stroke:none;display:inline;enable-background:new" />
    <path
       d="M 59.280769,8 C 51.083465,8 44.44375,14.162855 44.44375,21.746635 c 0.01991,0.869113 0.02566,1.839639 0.116827,2.920673 -1.297287,0.685511 -1.468702,3.372422 -0.311539,6.075 0.44621,1.042127 1.059543,1.884402 1.67452,2.570192 0.0205,0.02293 0.05726,0.05554 0.07788,0.07789 0.146795,0.714052 0.250836,1.2585 0.428366,2.063942 0.549966,1.635452 2.827601,4.715571 4.828846,7.360096 0.199573,2.040065 0.206822,4.066006 -0.194712,6.386539 -5.76026,4.73717 -20.505734,6.856417 -20.483654,11.760576 L 28.594227,73.73462 c 0,2.612412 3.935704,5.003935 10.202884,6.620193 l 0.895673,3.465865 a 2.1553325,2.1364467 0 0 0 1.362981,1.401923 c 0.278174,0.106696 0.444825,0.364742 1.207212,0.584135 4.01604,1.155736 10.141875,1.947115 17.017788,1.947115 6.875915,0 13.040692,-0.791379 17.056731,-1.947115 0.762387,-0.219393 0.967984,-0.477494 1.246154,-0.584135 a 2.1553325,2.1364467 0 0 0 1.285096,-1.324038 l 1.051442,-3.69952 c 6.114064,-1.613703 10.04712,-3.888803 10.04712,-6.464428 L 87.98125,60.961538 c -0.0235,-4.197304 -14.832962,-6.856407 -20.522596,-11.760576 -0.230364,-1.878567 -0.273039,-3.718464 -0.155769,-5.56875 1.819504,-2.782105 4.219996,-6.367339 4.828846,-8.177885 0.223768,-0.937634 0.332461,-1.570352 0.50625,-2.375481 0.537298,-0.650968 1.044238,-1.410202 1.440865,-2.336538 1.0989,-2.566489 0.964225,-5.046992 -0.155769,-5.880289 0.07826,-1.115165 0.161994,-2.16229 0.194711,-3.115384 C 74.1178,14.162856 67.478073,8 59.280769,8 z m 0,1.3240385 c 7.526045,0 13.490007,5.5824385 13.512981,12.3836535 4.5e-5,0.01312 0,0.02582 0,0.03894 -0.03209,0.901055 -0.116889,1.928522 -0.194712,3.0375 a 1.3104484,1.3104484 0 0 0 0.545193,1.129327 c 0.08063,0.05998 0.361374,0.47769 0.389423,1.285096 0.02805,0.807405 -0.180315,1.912476 -0.662019,3.0375 -0.339584,0.793107 -0.769682,1.447726 -1.246154,2.025 a 1.3104484,1.3104484 0 0 0 -0.272596,0.545192 c -0.170676,0.790706 -0.273455,1.391257 -0.467308,2.219712 -0.01047,0.04471 -0.02793,0.07067 -0.03894,0.116826 -0.245003,0.680514 -0.93247,1.95153 -1.791347,3.349039 -0.88635,1.442214 -1.929681,3.043241 -2.842788,4.439423 a 1.3104484,1.3104484 0 0 0 -0.233654,0.623077 c -0.122011,1.925036 -0.04586,3.840649 0.194712,5.802404 a 1.3104484,1.3104484 0 0 0 0.428365,0.817788 c 3.181962,2.742686 8.349134,4.596937 12.734135,6.386539 2.1925,0.8948 4.186253,1.777767 5.529807,2.609134 0.671778,0.415685 1.195755,0.800677 1.479808,1.129327 0.284053,0.328651 0.310756,0.52222 0.311539,0.662019 a 1.3104484,1.3104484 0 0 0 0.03894,0.194712 l 1.947115,12.578365 c 0,0.620848 -0.537615,1.513801 -2.102884,2.492308 -1.565269,0.978507 -3.993525,1.901253 -6.970673,2.687019 a 1.3104484,1.3104484 0 0 0 -0.895674,0.934616 l -1.0125,3.621634 -0.03894,0.03894 c -0.01184,0.02973 -0.0019,0.04317 0,0.03894 0.0019,-0.0042 -0.02542,-0.02902 -0.03894,0 -0.02704,0.05805 0.03024,0.02145 0,0.07788 -0.03024,0.05644 -0.0056,-0.01571 -0.03894,0.03894 -0.03335,0.05466 -0.0026,-0.01377 -0.03894,0.03894 -0.03922,0.05061 0.003,-0.0093 -0.03894,0.03894 -0.04196,0.04834 0.0056,-0.007 -0.03894,0.03894 -0.04459,0.04593 0.0081,-0.0045 -0.03894,0.03894 -0.04705,0.04338 0.01047,-0.0017 -0.03894,0.03894 -0.0247,0.02035 -0.01262,0.03903 0,0.03894 -0.05157,0.03791 0.01464,-0.03499 -0.03894,0 -0.05358,0.03499 0.01649,0.007 -0.03894,0.03894 -0.05543,0.03196 -0.02077,0.01009 -0.07788,0.03894 -0.05711,0.02885 0.01968,-0.02566 -0.03894,0 -0.05862,0.02566 0.021,-0.02238 -0.03894,0 a 1.3104484,1.3104484 0 0 0 0,0.03894 c -0.736507,0.282351 -0.569239,0.384014 -1.129327,0.545192 -3.82633,1.101143 -9.930875,1.869231 -16.70625,1.869231 -6.775373,0 -12.838813,-0.767467 -16.667307,-1.869231 -0.548747,-0.157914 -0.316029,-0.248183 -1.090385,-0.545192 a 1.3104484,1.3104484 0 0 0 -0.03894,-0.03894 c -0.06446,-0.02194 0.02412,0.0257 -0.03894,0 -0.06307,-0.02569 -0.01642,-0.0096 -0.07788,-0.03894 -0.06146,-0.02936 0.02069,0.03292 -0.03894,0 -0.05963,-0.03292 0.01864,-0.0026 -0.03894,-0.03894 -0.05758,-0.03638 0.01641,7.64e-4 -0.03894,-0.03894 -0.05535,-0.0397 0.01397,0.004 -0.03894,-0.03894 -0.02645,-0.02145 -0.04211,-0.01109 -0.03894,0 -0.05029,-0.04596 0.0086,0.01 -0.03894,-0.03894 -0.04749,-0.04885 0.0056,0.01264 -0.03894,-0.03894 0.01072,0.0035 0.0207,-0.01184 0,-0.03894 -0.0414,-0.05413 -8.27e-4,0.01755 -0.03894,-0.03894 -0.03812,-0.05649 -0.0042,0.01971 -0.03894,-0.03894 -0.03471,-0.05866 0.03115,0.02167 0,-0.03894 -0.03115,-0.06061 -0.01147,0.02343 -0.03894,-0.03894 -0.01375,-0.03118 -0.0019,-0.04349 0,-0.03894 l 0,-0.03894 c -0.02374,-0.06389 -0.01904,0.02626 -0.03894,-0.03894 l -0.85673,-3.387981 a 1.3104484,1.3104484 0 0 0 -0.973558,-0.973557 c -3.04649,-0.785667 -5.466139,-1.756295 -7.048558,-2.764904 -1.582418,-1.00861 -2.141827,-1.922002 -2.141827,-2.570193 L 31.865385,61.15625 a 1.3104484,1.3104484 0 0 0 0.03894,-0.194712 c -0.0026,-0.569007 0.479053,-1.282308 1.791346,-2.141826 1.312294,-0.859519 3.274517,-1.712323 5.451923,-2.570193 4.354811,-1.715739 9.504388,-3.379952 12.734135,-6.036057 a 1.3104484,1.3104484 0 0 0 0.467307,-0.778847 c 0.423831,-2.449396 0.402169,-4.616353 0.194712,-6.737019 A 1.3104484,1.3104484 0 0 0 52.310094,42.035577 C 51.312846,40.717773 50.253137,39.293414 49.389421,38.024519 48.525706,36.755624 47.85597,35.561266 47.67596,35.025962 47.52473,34.330334 47.42388,33.785871 47.286536,33.117788 A 1.3104484,1.3104484 0 0 0 46.975,32.494712 c -0.029,-0.03142 -0.05836,-0.02181 -0.07789,-0.03894 -0.548057,-0.611163 -1.065112,-1.342136 -1.440865,-2.219711 -0.507522,-1.185328 -0.708354,-2.3916 -0.662019,-3.232212 0.04633,-0.840612 0.344948,-1.144768 0.389423,-1.168269 a 1.3104484,1.3104484 0 0 0 0.700961,-1.285096 c -0.08486,-1.006236 -0.09718,-1.928952 -0.116827,-2.803846 0,-0.01312 -4.4e-5,-0.02582 0,-0.03894 0.02298,-6.801218 5.986935,-12.3836535 13.512981,-12.3836535 z"
       inkscape:connector-curvature="0"
       id="path3691"
       style="opacity:0.15;fill:#000000;fill-opacity:1;stroke:none;display:inline;enable-background:new" />
    <path
       d="M 59.280769,8 C 51.083465,8 44.44375,14.162855 44.44375,21.746635 c 0.006,0.260876 0.03196,0.53564 0.03894,0.817788 0.247612,-7.383075 6.757625,-13.3182692 14.798077,-13.3182692 7.955326,0 14.421651,5.8109612 14.798077,13.0846152 0.0088,-0.185825 0.03281,-0.405382 0.03894,-0.584134 C 74.1178,14.162856 67.478073,8 59.280769,8 z M 44.482692,24.70625 c -0.759651,0.461231 -1.088858,1.656141 -0.973557,3.115385 0.118733,-0.899867 0.483284,-1.607948 1.051442,-1.908173 -0.03535,-0.419204 -0.06115,-0.816695 -0.07789,-1.207212 z m 29.51827,0.233654 c -0.02629,0.399715 -0.04853,0.749974 -0.07788,1.168269 0.508216,0.378123 0.784688,1.113355 0.856731,2.025 0.170199,-1.438984 -0.113899,-2.624178 -0.778846,-3.193269 z M 51.336538,46.319231 c -0.03624,0.916604 -0.09882,1.877429 -0.272596,2.881731 -5.76026,4.73717 -20.505734,6.856417 -20.483654,11.760576 l -1.986057,12.773077 c 0,0.21634 0.0248,0.410076 0.07788,0.623077 l 1.908173,-12.15 c -0.02208,-4.90416 14.723394,-7.023406 20.483654,-11.760577 0.253498,-1.465008 0.293183,-2.823297 0.272596,-4.127884 z m 15.927404,0.50625 c -0.01022,1.200795 0.04547,2.404589 0.194712,3.621634 5.689634,4.90417 20.499094,7.563273 20.522596,11.760577 l 1.908173,12.15 c 0.05259,-0.20939 0.07789,-0.409782 0.07789,-0.623077 L 87.98125,60.961538 c -0.0235,-4.197304 -14.832962,-6.856407 -20.522596,-11.760576 -0.0976,-0.795893 -0.169014,-1.58773 -0.194712,-2.375481 z"
       inkscape:connector-curvature="0"
       id="path3682"
       style="opacity:0.5;fill:#000000;fill-opacity:1;stroke:none;display:inline;enable-background:new" />
    <path
       d="m 74.078846,22.330769 c -0.03824,0.804983 -0.09219,1.625233 -0.155769,2.53125 0.028,0.02084 0.05115,0.05502 0.07788,0.07788 0.04381,-0.665915 0.09638,-1.351524 0.116826,-1.947116 0,-0.223867 -0.02749,-0.440775 -0.03894,-0.662019 z m -29.596154,0.233654 c -0.0049,0.144028 -0.03894,0.283253 -0.03894,0.428365 0.01221,0.532088 0.01252,1.096922 0.03894,1.713462 0.02405,-0.0146 0.053,-0.0258 0.07789,-0.03894 -0.0638,-0.756548 -0.0616,-1.445052 -0.07789,-2.102885 z m -0.973557,5.335096 c -0.132705,1.144742 0.10368,2.60302 0.739903,4.088943 0.44621,1.042127 1.059543,1.884402 1.67452,2.570192 0.0205,0.02293 0.05726,0.05554 0.07788,0.07788 0.146795,0.714053 0.250836,1.258501 0.428366,2.063943 0.549966,1.635452 2.827601,4.715571 4.828846,7.360096 0.07357,0.752122 0.06586,1.49681 0.07788,2.258654 0.0475,-1.201296 0.03532,-2.347662 -0.07788,-3.504808 -2.001245,-2.644525 -4.27888,-5.724644 -4.828846,-7.360096 -0.17753,-0.805442 -0.281571,-1.34989 -0.428366,-2.063942 -0.02062,-0.02234 -0.05738,-0.05496 -0.07788,-0.07789 -0.614977,-0.68579 -1.22831,-1.528065 -1.67452,-2.570192 C 43.82697,29.756551 43.587928,28.7837 43.509135,27.89951 z m 31.270673,0.233654 c -0.09659,0.816592 -0.31307,1.703211 -0.700962,2.609135 -0.396627,0.926336 -0.903567,1.68557 -1.440865,2.336538 -0.173789,0.805129 -0.282482,1.437847 -0.50625,2.375481 -0.60885,1.810546 -3.009342,5.39578 -4.828846,8.177885 -0.02642,0.416883 0.01234,0.829 0,1.246153 1.819504,-2.782104 4.219996,-6.367339 4.828846,-8.177884 0.223768,-0.937634 0.332461,-1.570352 0.50625,-2.375481 0.537298,-0.650968 1.044238,-1.410203 1.440865,-2.336538 0.600255,-1.401901 0.787684,-2.757874 0.700962,-3.855289 z m -46.107693,46.224519 -0.07788,0.623077 c 0,2.612412 3.935704,5.003935 10.202884,6.620193 l 0.895673,3.465865 a 2.1553325,2.1364467 0 0 0 1.362981,1.401923 c 0.278174,0.106696 0.444825,0.364742 1.207212,0.584135 C 46.279021,88.208621 52.404856,89 59.280769,89 c 6.875915,0 13.040692,-0.791379 17.056731,-1.947115 0.762387,-0.219393 0.967984,-0.477494 1.246154,-0.584135 a 2.1553325,2.1364467 0 0 0 1.285096,-1.324038 l 1.051442,-3.69952 c 6.11406,-1.613698 10.047116,-3.888798 10.047116,-6.464423 l -0.07789,-0.623077 c -0.582488,2.319088 -4.361492,4.361282 -9.969231,5.841346 l -1.051442,3.69952 a 2.1553325,2.1364467 0 0 1 -1.285096,1.324038 c -0.27817,0.106646 -0.483767,0.364742 -1.246154,0.584135 -4.016039,1.155736 -10.180816,1.947115 -17.056731,1.947115 -6.875913,0 -13.001748,-0.791379 -17.017788,-1.947115 -0.762387,-0.219393 -0.929038,-0.477439 -1.207212,-0.584135 A 2.1553325,2.1364467 0 0 1 39.692783,83.820673 L 38.79711,80.354808 c -5.74818,-1.482411 -9.537032,-3.638028 -10.125,-5.997116 z"
       inkscape:connector-curvature="0"
       id="path3705"
       style="opacity:0.5;fill:#ffffff;fill-opacity:1;stroke:none;display:inline;enable-background:new" />
    <path
       d="m 28.516346,17.969231 c -6.147978,0 -11.1375,4.592934 -11.1375,10.280769 0.0042,0.183147 0.03588,0.424454 0.03894,0.623077 0.351158,-5.394176 5.178497,-9.657692 11.098558,-9.657692 5.863213,0 10.665594,4.181426 11.098558,9.501923 0.0081,-0.148532 0.03411,-0.326524 0.03894,-0.467308 4e-6,-5.687836 -4.989523,-10.280769 -11.1375,-10.280769 z M 17.417788,30.508654 c -0.600811,0.358323 -0.863,1.323075 -0.739903,2.492308 0.105113,-0.610231 0.381056,-1.074897 0.778846,-1.285097 -0.03721,-0.440904 -0.03027,-0.80635 -0.03894,-1.207211 z m 22.158174,0.194711 c -0.02821,0.393927 -0.04901,0.756908 -0.07788,1.16827 0.30024,0.223385 0.526555,0.606402 0.623077,1.090384 0.102957,-1.006073 -0.08303,-1.839641 -0.545192,-2.258654 z M 22.558173,46.475 c -0.02289,0.755585 -0.08792,1.533235 -0.233654,2.375481 -4.320195,3.552877 -15.3598291,5.161782 -15.343269,8.839904 l -1.4798077,9.579807 c 0,0.207234 0.013658,0.420431 0.077885,0.623077 L 6.98125,58.936538 c -0.016561,-3.678121 11.023074,-5.287027 15.343269,-8.839903 0.225862,-1.3053 0.281475,-2.47817 0.233654,-3.621635 z m 11.955289,0.700962 c -0.02099,0.965076 -0.0037,1.93698 0.116826,2.920673 0.984511,0.848595 2.356575,1.598905 3.855289,2.297596 0.492289,-0.199589 0.989572,-0.389101 1.479808,-0.584135 -2.069524,-0.891006 -4.031778,-1.836222 -5.335097,-2.959615 -0.06876,-0.560783 -0.09877,-1.122462 -0.116826,-1.674519 z m -8.333654,27.298557 -0.03894,0.116827 a 2.5024688,2.5024688 0 0 0 -0.03894,0.389423 c 0,1.019096 0.306219,1.915731 0.778846,2.725962 0.31584,0.0079 0.613959,0.03543 0.934616,0.03894 -0.860068,-0.925855 -1.457111,-2.009802 -1.635577,-3.271154 z"
       inkscape:connector-curvature="0"
       id="path2904"
       style="opacity:0.5;fill:#000000;fill-opacity:1;stroke:none;display:inline;enable-background:new" />
    <path
       d="m 28.516346,17.969231 c -6.147978,0 -11.1375,4.592934 -11.1375,10.280769 0.01494,0.651834 0.0095,1.408936 0.07789,2.219712 -0.972966,0.514133 -1.101525,2.529316 -0.233654,4.55625 0.334657,0.781595 0.784921,1.432774 1.246154,1.947115 0.01536,0.0172 0.06242,0.02219 0.07788,0.03894 0.110098,0.53554 0.178391,0.953613 0.311539,1.557693 0.412474,1.22659 2.120701,3.546413 3.621634,5.529807 0.149681,1.530049 0.145381,3.010562 -0.155769,4.750962 -4.320195,3.552877 -15.3598291,5.161782 -15.343269,8.839904 L 5.5014433,67.27019 c 0,1.959308 2.9323059,3.733478 7.6326927,4.945673 L 13.796154,74.825 a 1.6164994,1.602335 0 0 0 1.0125,1.090385 c 0.208631,0.08002 0.362825,0.224879 0.934615,0.389423 2.870735,0.826141 7.210224,1.387533 12.072116,1.440865 -1.025417,-1.10385 -1.713462,-2.420416 -1.713462,-4.011058 a 2.5024688,2.5024688 0 0 1 0.03894,-0.389423 l 1.947116,-12.383654 0.03894,-0.389423 0.07788,0 c 0.18525,-2.241925 1.726556,-3.857483 3.38798,-4.945673 1.769088,-1.158706 3.904441,-2.034814 6.152885,-2.920673 0.735912,-0.28994 1.482113,-0.602229 2.219712,-0.895673 -2.069524,-0.891006 -4.031778,-1.836222 -5.335097,-2.959615 -0.172771,-1.408924 -0.165836,-2.779113 -0.07788,-4.166827 1.364629,-2.086579 3.126055,-4.756035 3.582692,-6.113942 0.167826,-0.703226 0.259081,-1.187499 0.389423,-1.791347 0.402973,-0.488225 0.753972,-1.057653 1.051443,-1.752403 0.824175,-1.924868 0.762104,-3.775508 -0.07788,-4.400481 0.05869,-0.836375 0.131235,-1.66066 0.155769,-2.375481 4e-6,-5.687836 -4.989523,-10.280769 -11.1375,-10.280769 z m 0,2.414423 c 4.917641,0 8.677196,3.544413 8.723077,7.788461 2.83e-4,0.02613 0,0.0517 0,0.07788 -0.0235,0.607281 -0.09715,1.384487 -0.155769,2.219712 a 2.4097886,2.4097886 0 0 0 0.623077,1.791346 c 0.0022,-0.0035 0.03598,-0.01569 0.03894,0.116827 0.0077,0.346594 -0.09593,1.028007 -0.389423,1.713461 -0.215034,0.502219 -0.446228,0.859643 -0.700962,1.168269 a 2.4097886,2.4097886 0 0 0 -0.467307,1.0125 c -0.119357,0.552924 -0.229712,0.992657 -0.350481,1.51875 -0.08202,0.243908 -0.571433,1.252654 -1.207212,2.297597 -0.635779,1.044942 -1.418268,2.224346 -2.102884,3.271153 a 2.4097886,2.4097886 0 0 0 -0.389423,1.16827 c -0.09377,1.479657 -0.07987,3.030152 0.116827,4.634134 a 2.4097886,2.4097886 0 0 0 0.817788,1.51875 c 0.417556,0.359912 0.901053,0.628667 1.362981,0.934616 -1.417618,0.608956 -2.87225,1.138143 -4.166827,1.986057 -1.788519,1.171434 -3.656905,3.107841 -4.244712,5.802404 A 2.4097886,2.4097886 0 0 0 25.7125,60.338462 l -0.03894,0.389423 -1.908173,12.227884 a 2.4097886,2.4097886 0 0 0 0,0.778846 l -0.07788,0 c 0,0.480998 0.226044,0.874283 0.311538,1.324039 -3.035488,-0.229093 -5.809909,-0.538088 -7.59375,-1.051442 -0.17079,-0.04915 -0.32697,-0.155474 -0.389423,-0.194712 L 15.470673,71.631731 A 2.4097886,2.4097886 0 0 0 13.718269,69.879327 C 11.526004,69.313958 9.8297845,68.594038 8.8504808,67.971154 8.1160027,67.503991 7.9492012,67.212191 7.9158654,67.192308 l 1.4408654,-9.151443 a 2.4097886,2.4097886 0 0 0 0.038942,-0.233653 c 0.00698,0.04499 0.092004,-0.144668 0.7009622,-0.545193 0.811945,-0.534033 2.212501,-1.156151 3.816346,-1.791346 3.207688,-1.270388 7.130319,-2.4483 9.930288,-4.750961 A 2.4097886,2.4097886 0 0 0 24.7,49.278846 c 0.339635,-1.962817 0.359492,-3.728579 0.194712,-5.412981 a 2.4097886,2.4097886 0 0 0 -0.50625,-1.207211 c -0.743118,-0.981986 -1.520804,-2.044995 -2.141827,-2.959616 -0.621024,-0.91462 -1.058179,-1.812399 -1.090385,-1.908173 -0.08519,-0.41248 -0.134784,-0.76523 -0.233654,-1.246153 a 2.4097886,2.4097886 0 0 0 -0.623077,-1.16827 c -0.0206,-0.02231 -0.0191,0.02087 -0.03894,0 -0.01084,-0.01209 -0.02814,-0.02663 -0.03894,-0.03894 -0.295417,-0.336419 -0.56907,-0.756221 -0.778847,-1.246154 C 19.139524,33.383066 19.033898,32.653195 19.053365,32.3 a 2.4097886,2.4097886 0 0 0 0.817789,-2.025 c -0.05587,-0.662104 -0.06264,-1.330986 -0.07789,-2.025 0,-0.0131 -7.1e-5,-0.02587 0,-0.03894 0.02304,-4.261384 3.790296,-7.827404 8.723077,-7.827404 z"
       inkscape:connector-curvature="0"
       id="path3699"
       style="opacity:0.1;fill:#000000;fill-opacity:1;stroke:none;display:inline;enable-background:new" />
    <path
       d="m 39.614904,28.717308 c -0.03296,0.605629 -0.0697,1.236522 -0.116827,1.908173 0.02999,0.02232 0.04987,0.05249 0.07788,0.07788 0.02915,-0.407 0.06542,-0.843966 0.07788,-1.207211 0,-0.263452 -0.01792,-0.52044 -0.03894,-0.778846 z m -22.197116,0.155769 c -0.01352,0.207671 -0.03894,0.412218 -0.03894,0.623077 0.0069,0.297363 0.03167,0.67622 0.03894,1.0125 0.01568,-0.0093 0.02279,-0.03041 0.03894,-0.03894 -0.04919,-0.582971 -0.03109,-1.088343 -0.03894,-1.596635 z m -0.739903,4.127885 c -0.151984,0.882349 0.03214,2.072917 0.545192,3.271153 0.334657,0.781596 0.784921,1.432774 1.246154,1.947116 0.01536,0.0172 0.06242,0.02219 0.07788,0.03894 0.110098,0.53554 0.178391,0.953613 0.311539,1.557692 0.412474,1.226591 2.120701,3.546413 3.621634,5.529808 0.03485,0.356257 0.06154,0.696651 0.07788,1.051442 0.02001,-0.778934 -0.003,-1.532571 -0.07788,-2.297596 -1.500933,-1.983394 -3.20916,-4.303217 -3.621634,-5.529807 -0.133148,-0.60408 -0.201441,-1.022153 -0.311539,-1.557693 -0.01546,-0.01675 -0.06252,-0.02175 -0.07788,-0.03894 -0.461233,-0.514341 -0.911497,-1.16552 -1.246154,-1.947115 -0.301638,-0.704484 -0.477906,-1.385884 -0.545192,-2.025 z m 23.443269,0.03894 c -0.07184,0.620669 -0.248082,1.292153 -0.545192,1.986058 -0.297471,0.69475 -0.64847,1.264178 -1.051443,1.752403 -0.130342,0.603848 -0.221597,1.088121 -0.389423,1.791347 -0.456637,1.357907 -2.218063,4.027363 -3.582692,6.113942 -0.05295,0.835374 -0.06625,1.657363 -0.03894,2.492308 0.0091,-0.417184 0.01234,-0.827324 0.03894,-1.246154 1.364629,-2.086579 3.126055,-4.756035 3.582692,-6.113943 0.167826,-0.703225 0.259081,-1.187498 0.389423,-1.791346 0.402973,-0.488225 0.753972,-1.057653 1.051443,-1.752404 0.515108,-1.203042 0.696015,-2.368273 0.545192,-3.232211 z m -1.635577,19.354327 c -0.2484,0.100714 -0.493107,0.214303 -0.739904,0.311538 -2.248444,0.885859 -4.383797,1.761967 -6.152885,2.920673 -1.661424,1.08819 -3.20273,2.703748 -3.38798,4.945673 l -0.07788,0 -0.03894,0.389423 -1.947116,12.383654 a 2.5024688,2.5024688 0 0 0 -0.03894,0.389423 c 0,0.256491 0.04358,0.497409 0.07789,0.739904 l 1.908173,-12.266827 0.03894,-0.389423 0.07788,0 c 0.18525,-2.241925 1.726556,-3.857483 3.38798,-4.945673 1.769088,-1.158706 3.904441,-2.034815 6.152885,-2.920673 0.735912,-0.28994 1.482113,-0.602229 2.219712,-0.895673 -0.506233,-0.217952 -0.994487,-0.435765 -1.479808,-0.662019 z m -32.9062501,15.49904 -0.077885,0.623077 c 0,1.959308 2.9323059,3.733478 7.6326927,4.945673 l 0.662019,2.609135 a 1.6164994,1.602335 0 0 0 1.0125,1.090384 c 0.208631,0.08002 0.362825,0.22488 0.934615,0.389424 2.870735,0.826141 7.210224,1.387533 12.072116,1.440865 -0.368451,-0.396633 -0.669549,-0.83069 -0.934616,-1.285096 -4.473027,-0.111423 -8.456098,-0.630269 -11.1375,-1.401923 -0.57179,-0.164544 -0.725984,-0.309408 -0.934615,-0.389423 A 1.6164994,1.602335 0 0 1 13.796154,74.825 L 13.134135,72.215865 C 8.930905,71.131884 6.1223671,69.606551 5.5793269,67.893269 z"
       inkscape:connector-curvature="0"
       id="path3685"
       style="opacity:0.5;fill:#ffffff;fill-opacity:1;stroke:none;display:inline;enable-background:new" />
    <path
       d="m 28.516346,17.969231 c -6.147978,0 -11.1375,4.592934 -11.1375,10.280769 0.01494,0.651834 0.0095,1.408936 0.07789,2.219712 -0.972966,0.514133 -1.101525,2.529316 -0.233654,4.55625 0.334657,0.781595 0.784921,1.432774 1.246154,1.947115 0.01536,0.0172 0.06242,0.02219 0.07788,0.03894 0.110098,0.53554 0.178391,0.953613 0.311539,1.557693 0.412474,1.22659 2.120701,3.546413 3.621634,5.529807 0.149681,1.530049 0.145381,3.010562 -0.155769,4.750962 -4.320195,3.552877 -15.3598291,5.161782 -15.343269,8.839904 L 5.5014433,67.27019 c 0,1.959308 2.9323059,3.733478 7.6326927,4.945673 L 13.796154,74.825 a 1.6164994,1.602335 0 0 0 1.0125,1.090385 c 0.208631,0.08002 0.362825,0.224879 0.934615,0.389423 2.870735,0.826141 7.210224,1.387533 12.072116,1.440865 -1.025417,-1.10385 -1.713462,-2.420416 -1.713462,-4.011058 a 2.5024688,2.5024688 0 0 1 0.03894,-0.389423 l 1.947116,-12.383654 0.03894,-0.389423 0.07788,0 c 0.18525,-2.241925 1.726556,-3.857483 3.38798,-4.945673 1.769088,-1.158706 3.904441,-2.034814 6.152885,-2.920673 0.735912,-0.28994 1.482113,-0.602229 2.219712,-0.895673 -2.069524,-0.891006 -4.031778,-1.836222 -5.335097,-2.959615 -0.172771,-1.408924 -0.165836,-2.779113 -0.07788,-4.166827 1.364629,-2.086579 3.126055,-4.756035 3.582692,-6.113942 0.167826,-0.703226 0.259081,-1.187499 0.389423,-1.791347 0.402973,-0.488225 0.753972,-1.057653 1.051443,-1.752403 0.824175,-1.924868 0.762104,-3.775508 -0.07788,-4.400481 0.05869,-0.836375 0.131235,-1.66066 0.155769,-2.375481 4e-6,-5.687836 -4.989523,-10.280769 -11.1375,-10.280769 z m 0,1.246154 c 5.509878,0 9.868345,4.057743 9.891346,8.995673 6.1e-5,0.01311 0,0.02582 0,0.03894 -0.02394,0.657218 -0.09704,1.460784 -0.155769,2.297596 a 1.2519772,1.2519772 0 0 0 0.50625,1.090385 c -0.04293,-0.03194 0.143333,0.184407 0.155769,0.739904 0.01246,0.555496 -0.155776,1.323294 -0.50625,2.141827 -0.254641,0.594723 -0.530773,1.08489 -0.85673,1.479807 a 1.2519772,1.2519772 0 0 0 -0.233654,0.50625 c -0.12509,0.579513 -0.208456,1.06764 -0.350481,1.674519 -0.0039,0.01644 -0.03502,0.02227 -0.03894,0.03894 -0.004,0.01134 0.0044,0.06598 0,0.07788 -0.175992,0.477904 -0.700257,1.389198 -1.324039,2.414423 -0.651267,1.070399 -1.419374,2.226037 -2.102884,3.271154 a 1.2519772,1.2519772 0 0 0 -0.194712,0.623077 c -0.09098,1.435482 -0.107319,2.890217 0.07789,4.400481 a 1.2519772,1.2519772 0 0 0 0.428365,0.778846 c 0.873064,0.752536 2.133575,1.252623 3.271154,1.830289 -2.188856,0.86421 -4.33507,1.743487 -6.191827,2.959615 -1.634467,1.070533 -3.109954,2.813137 -3.621635,5.101442 a 1.2519772,1.2519772 0 0 0 -0.389423,0.778846 l -0.03894,0.311539 0,0.07789 -1.947115,12.305769 a 1.2519772,1.2519772 0 0 0 0.07788,0.584134 l -0.116827,0 c 0,0.948813 0.236808,1.813091 0.584135,2.609135 -3.741157,-0.185843 -7.136032,-0.610124 -9.346154,-1.246154 -0.441616,-0.127083 -0.330031,-0.163413 -0.817788,-0.350481 a 1.2519772,1.2519772 0 0 0 -0.03894,0 c -0.05391,-0.01926 0.01373,0.02246 -0.03894,0 0.01299,-0.0037 0.02562,-0.02616 0,-0.03894 -0.05124,-0.02556 0.01072,0.02859 -0.03894,0 -0.04784,-0.0315 0.007,-0.0046 -0.03894,-0.03894 -0.04374,-0.03701 0.0025,0.03958 -0.03894,0 -0.04145,-0.03958 0.039,0.0031 0,-0.03894 -0.03641,-0.04427 -0.0052,0.0075 -0.03894,-0.03894 -0.02786,-0.05013 0.0248,0.01279 0,-0.03894 -0.01234,-0.02587 -0.035,-0.01311 -0.03894,0 -0.02162,-0.05314 0.01838,0.01542 0,-0.03894 L 14.341346,71.904327 A 1.2519772,1.2519772 0 0 0 13.445673,71.008654 C 11.17753,70.423717 9.3706989,69.710844 8.2274038,68.983654 7.1118457,68.274105 6.8024581,67.667852 6.7865385,67.309135 l 1.4408653,-9.424039 a 1.2519772,1.2519772 0 0 0 0,-0.194711 c -0.00132,-0.292914 0.2568,-0.776818 1.2072116,-1.401923 0.9504116,-0.625106 2.4244936,-1.2644 4.0499996,-1.908174 3.251014,-1.287547 7.126215,-2.506419 9.61875,-4.55625 a 1.2519772,1.2519772 0 0 0 0.467308,-0.778846 c 0.321144,-1.855954 0.313294,-3.452258 0.155769,-5.0625 a 1.2519772,1.2519772 0 0 0 -0.233654,-0.623077 c -0.746648,-0.986652 -1.538024,-2.051946 -2.180769,-2.998557 -0.612167,-0.901578 -1.102136,-1.687876 -1.246154,-2.063943 -0.0062,-0.02821 0.006,-0.05044 0,-0.07788 -0.0027,-0.0077 -0.0365,-0.03169 -0.03894,-0.03894 -0.108278,-0.505633 -0.166284,-0.8848 -0.272596,-1.401923 a 1.2519772,1.2519772 0 0 0 -0.272596,-0.623077 c -0.08555,-0.09265 -0.05423,-0.02695 -0.116827,-0.07788 -0.362899,-0.415556 -0.712136,-0.947138 -0.973558,-1.557692 -0.366046,-0.854912 -0.538118,-1.680491 -0.50625,-2.258654 0.03186,-0.578163 0.246498,-0.748904 0.155769,-0.700962 a 1.2519772,1.2519772 0 0 0 0.66202,-1.207211 C 18.641561,29.626184 18.639642,28.92012 18.625,28.25 c 0,-0.01312 -6.1e-5,-0.02583 0,-0.03894 0.02301,-4.93793 4.381467,-8.995673 9.891346,-8.995673 z"
       inkscape:connector-curvature="0"
       id="path3694"
       style="opacity:0.15;fill:#000000;fill-opacity:1;stroke:none;display:inline;enable-background:new" />
  </g>
</svg>
