<?xml version="1.0" encoding="UTF-8" standalone="no"?>
<!-- Created with Inkscape (http://www.inkscape.org/) -->

<svg
   xmlns:dc="http://purl.org/dc/elements/1.1/"
   xmlns:cc="http://creativecommons.org/ns#"
   xmlns:rdf="http://www.w3.org/1999/02/22-rdf-syntax-ns#"
   xmlns:svg="http://www.w3.org/2000/svg"
   xmlns="http://www.w3.org/2000/svg"
   xmlns:xlink="http://www.w3.org/1999/xlink"
   xmlns:inkscape="http://www.inkscape.org/namespaces/inkscape"
   version="1.0"
   width="96"
   height="96"
   id="svg2">
  <defs
     id="defs4">
    <linearGradient
       x1="11.640054"
       y1="4.0775533"
       x2="11.640054"
       y2="17.924156"
       id="linearGradient3972"
       gradientUnits="userSpaceOnUse">
      <stop
         id="stop3974"
         style="stop-color:#323232;stop-opacity:1"
         offset="0" />
      <stop
         id="stop3976"
         style="stop-color:#787878;stop-opacity:1"
         offset="1" />
    </linearGradient>
    <linearGradient
       x1="11.640054"
       y1="4.0775533"
       x2="11.640054"
       y2="17.924156"
       id="linearGradient2862"
       xlink:href="#linearGradient3972"
       gradientUnits="userSpaceOnUse"
       gradientTransform="matrix(4,0,0,4,4,-70)" />
    <clipPath
       id="clipPath3647">
      <path
         d="m -100,-74 0,96 96,0 0,-96 -96,0 z m 39.875,20.3125 16.125,0 0,19.75 19.6875,0 0,16.1875 -19.6875,0 0,19.4375 -16.125,0 0,-19.4375 -19.5625,0 0,-16.1875 19.5625,0 0,-19.75 z"
         inkscape:connector-curvature="0"
         id="path3649"
         style="opacity:0.3;color:#000000;fill:#ff0000;fill-opacity:1;fill-rule:nonzero;stroke:none;stroke-width:4;marker:none;visibility:visible;display:inline;overflow:visible;enable-background:accumulate" />
    </clipPath>
    <filter
       color-interpolation-filters="sRGB"
       id="filter3651">
      <feGaussianBlur
         id="feGaussianBlur3653"
         stdDeviation="0.83069354" />
    </filter>
  </defs>
  <metadata
     id="metadata7">
    <rdf:RDF>
      <cc:Work
         rdf:about="">
        <dc:format>image/svg+xml</dc:format>
        <dc:type
           rdf:resource="http://purl.org/dc/dcmitype/StillImage" />
        <dc:title />
      </cc:Work>
    </rdf:RDF>
  </metadata>
  <g
     transform="translate(0,74)"
     id="layer3"
     style="display:inline">
    <path
       d="m -60.119657,-53.689786 0,19.741424 -19.570128,0 0,16.190394 19.570128,0 0,19.447752 16.119657,0 0,-19.447752 19.689784,0 0,-16.190394 -19.689784,0 0,-19.741424 -16.119657,0 z"
       inkscape:connector-curvature="0"
       transform="translate(100,0)"
       clip-path="url(#clipPath3647)"
       id="path3638"
       style="opacity:0.2;fill:none;stroke:#ffffff;stroke-width:4;stroke-miterlimit:4;stroke-dasharray:none;display:inline;filter:url(#filter3651)" />
    <path
       d="m 39.880343,-53.689786 0,19.741424 -19.570128,0 0,16.190394 19.570128,0 0,19.447752 16.119657,0 0,-19.447752 19.689784,0 0,-16.190394 -19.689784,0 0,-19.741424 -16.119657,0 z"
       inkscape:connector-curvature="0"
       id="Symbol"
       style="fill:url(#linearGradient2862);fill-opacity:1;stroke:none;display:inline" />
    <path
       d="m 39.875,-53.75 0,4.375 16.125,0 0,-4.375 -16.125,0 z M 20.25,-34 l 0,4.375 19.625,0 0,-4.375 -19.625,0 z m 35.75,0 0,4.375 19.75,0 0,-4.375 -19.75,0 z"
       inkscape:connector-curvature="0"
       id="BevelShadow"
       style="opacity:0.3;fill:#000000;fill-opacity:1;stroke:none;display:inline" />
    <path
       d="m 20.25,-17.75 0,4.25 19.625,0 0,-4.25 -19.625,0 z m 35.75,0 0,4.25 19.75,0 0,-4.25 -19.75,0 z M 39.875,1.75 39.875,6 56,6 l 0,-4.25 -16.125,0 z"
       inkscape:connector-curvature="0"
       id="BevelHighlight"
       style="opacity:0.3;fill:#ffffff;fill-opacity:1;stroke:none;display:inline" />
    <rect
       width="96"
       height="96"
       x="-100"
       y="-74"
       id="rect3636"
       style="opacity:0.3;color:#000000;fill:#ff0000;fill-opacity:1;fill-rule:nonzero;stroke:none;stroke-width:4;marker:none;visibility:visible;display:inline;overflow:visible;enable-background:accumulate" />
    <path
       d="m 39.875,20.3125 0,19.75 -19.5625,0 0,16.1875 19.5625,0 0,19.4375 16.125,0 0,-19.4375 19.6875,0 0,-16.1875 -19.6875,0 0,-19.75 -16.125,0 z m 2.03125,2.03125 12.0625,0 0,17.71875 A 2.0173931,2.0173931 0 0 0 56,42.09375 l 17.65625,0 0,12.125 -17.65625,0 A 2.0173931,2.0173931 0 0 0 53.96875,56.25 l 0,17.40625 -12.0625,0 0,-17.40625 A 2.0173931,2.0173931 0 0 0 39.875,54.21875 l -17.53125,0 0,-12.125 17.53125,0 a 2.0173931,2.0173931 0 0 0 2.03125,-2.03125 l 0,-17.71875 z"
       inkscape:connector-curvature="0"
       transform="translate(0,-74)"
       id="path3655"
       style="opacity:0.3;fill:#000000;fill-opacity:1;stroke:none;display:inline" />
  </g>
</svg>
