<?xml version="1.0" encoding="UTF-8" standalone="no"?>
<!-- Created with Inkscape (http://www.inkscape.org/) -->

<svg
   xmlns:dc="http://purl.org/dc/elements/1.1/"
   xmlns:cc="http://creativecommons.org/ns#"
   xmlns:rdf="http://www.w3.org/1999/02/22-rdf-syntax-ns#"
   xmlns:svg="http://www.w3.org/2000/svg"
   xmlns="http://www.w3.org/2000/svg"
   xmlns:xlink="http://www.w3.org/1999/xlink"
   xmlns:inkscape="http://www.inkscape.org/namespaces/inkscape"
   version="1.0"
   width="96"
   height="96"
   id="svg2"
   style="display:inline">
  <defs
     id="defs4">
    <linearGradient
       x1="12.80275"
       y1="3.7361259"
       x2="12.80275"
       y2="16.759111"
       id="linearGradient5044"
       gradientUnits="userSpaceOnUse"
       gradientTransform="matrix(0.8458416,0,0,1.0765258,-1.4962477,-3.0220357)">
      <stop
         id="stop5046"
         style="stop-color:#323232;stop-opacity:1"
         offset="0" />
      <stop
         id="stop5048"
         style="stop-color:#787878;stop-opacity:1"
         offset="1" />
    </linearGradient>
    <linearGradient
       x1="24"
       y1="7"
       x2="4"
       y2="7"
       id="linearGradient3725"
       xlink:href="#linearGradient5044"
       gradientUnits="userSpaceOnUse"
       gradientTransform="matrix(0,-4,4,0,20,30)" />
    <clipPath
       id="clipPath3725">
      <path
         d="m -100,-74 0,96 96,0 0,-96 -96,0 z m 64,8 24,24 -24,24 0,-12 -24,0 0,-24 24,0 0,-12 z m -32,32 0,12 24,0 0,24 -24,0 0,12 -24,-24 24,-24 z"
         inkscape:connector-curvature="0"
         id="path3728"
         style="opacity:0.3;color:#000000;fill:#ff0000;fill-opacity:1;fill-rule:nonzero;stroke:none;stroke-width:4;marker:none;visibility:visible;display:inline;overflow:visible;enable-background:accumulate" />
    </clipPath>
    <filter
       color-interpolation-filters="sRGB"
       id="filter3730">
      <feGaussianBlur
         id="feGaussianBlur3732"
         stdDeviation="1.2" />
    </filter>
  </defs>
  <metadata
     id="metadata7">
    <rdf:RDF>
      <cc:Work
         rdf:about="">
        <dc:format>image/svg+xml</dc:format>
        <dc:type
           rdf:resource="http://purl.org/dc/dcmitype/StillImage" />
        <dc:title />
      </cc:Work>
    </rdf:RDF>
  </metadata>
  <g
     transform="translate(0,74)"
     id="layer1">
    <path
       d="m -36,-66 0,12 -24,0 0,24 24,0 0,12 24,-24 -24,-24 z m -32,32 -24,24 24,24 0,-12 24,0 0,-24 -24,0 0,-12 z"
       inkscape:connector-curvature="0"
       transform="translate(100,0)"
       clip-path="url(#clipPath3725)"
       id="path3715"
       style="opacity:0.2;fill:none;stroke:#ffffff;stroke-width:4;stroke-miterlimit:4;stroke-dasharray:none;display:inline;filter:url(#filter3730)" />
    <path
       d="m 64,-66 0,12 -24,0 0,24 24,0 0,12 24,-24 -24,-24 z m -32,32 -24,24 24,24 0,-12 24,0 0,-24 -24,0 0,-12 z"
       inkscape:connector-curvature="0"
       id="path2946"
       style="fill:url(#linearGradient3725);fill-opacity:1;stroke:none;display:inline" />
    <path
       d="m 64,-66 0,4 22,22 2,-2 -24,-24 z m -24,12 0,4 24,0 0,-4 -24,0 z m -8,20 -24,24 2,2 22,-22 0,-4 z m 0,12 0,4 24,0 0,-4 -24,0 z"
       inkscape:connector-curvature="0"
       id="path3727"
       style="opacity:0.3;fill:#000000;fill-opacity:1;stroke:none;display:inline" />
    <path
       d="m 86,-40 -22,22 0,4 24,-24 -2,-2 z m -46,10 0,4 24,0 0,-4 -24,0 z M 10,-8 8,-6 32,18 32,14 10,-8 z M 32,2 32,6 56,6 56,2 32,2 z"
       inkscape:connector-curvature="0"
       id="path3737"
       style="opacity:0.3;fill:#ffffff;fill-opacity:1;stroke:none;display:inline" />
    <rect
       width="96"
       height="96"
       x="-100"
       y="-74"
       id="rect3713"
       style="opacity:0.3;color:#000000;fill:#ff0000;fill-opacity:1;fill-rule:nonzero;stroke:none;stroke-width:4;marker:none;visibility:visible;display:inline;overflow:visible;enable-background:accumulate" />
    <path
       d="m 64,8 0,12 -24,0 0,24 24,0 0,12 L 88,32 64,8 z M 65.96875,12.71875 85.25,32 65.96875,51.28125 65.96875,44 A 1.9569346,1.9569346 0 0 0 64,42.03125 l -22.03125,0 0,-20.0625 22.03125,0 A 1.9569346,1.9569346 0 0 0 65.96875,20 l 0,-7.28125 z M 32,40 8,64 32,88 32,76 56,76 56,52 32,52 32,40 z m -1.96875,4.71875 0,7.28125 A 1.9569346,1.9569346 0 0 0 32,53.96875 l 22.03125,0 0,20.0625 -22.03125,0 A 1.9569346,1.9569346 0 0 0 30.03125,76 l 0,7.28125 L 10.75,64 30.03125,44.71875 z"
       inkscape:connector-curvature="0"
       transform="translate(0,-74)"
       id="path3734"
       style="opacity:0.3;fill:#000000;fill-opacity:1;stroke:none;display:inline" />
  </g>
</svg>
