<?xml version="1.0" encoding="UTF-8" standalone="no"?>
<!-- Created with Inkscape (http://www.inkscape.org/) -->

<svg
   xmlns:dc="http://purl.org/dc/elements/1.1/"
   xmlns:cc="http://creativecommons.org/ns#"
   xmlns:rdf="http://www.w3.org/1999/02/22-rdf-syntax-ns#"
   xmlns:svg="http://www.w3.org/2000/svg"
   xmlns="http://www.w3.org/2000/svg"
   xmlns:xlink="http://www.w3.org/1999/xlink"
   xmlns:inkscape="http://www.inkscape.org/namespaces/inkscape"
   version="1.0"
   width="96"
   height="96"
   id="svg2"
   style="display:inline">
  <defs
     id="defs4">
    <linearGradient
       x1="11.998966"
       y1="0.92195445"
       x2="11.998966"
       y2="19.387045"
       id="linearGradient5520"
       gradientUnits="userSpaceOnUse"
       gradientTransform="scale(0.9219544,1.0846523)">
      <stop
         id="stop5522"
         style="stop-color:#323232;stop-opacity:1"
         offset="0" />
      <stop
         id="stop5524"
         style="stop-color:#787878;stop-opacity:1"
         offset="1" />
    </linearGradient>
    <linearGradient
       x1="25.477962"
       y1="5.5208831"
       x2="25.477962"
       y2="22.083412"
       id="linearGradient2956"
       xlink:href="#linearGradient5520"
       gradientUnits="userSpaceOnUse"
       gradientTransform="matrix(3.6988916,0,0,4.3488388,-48.240224,-86.009431)" />
    <clipPath
       id="clipPath2967">
      <path
         d="m -100,-74 0,96 96,0 0,-96 -96,0 z m 36,12.125 24,0 0,8 -24,0 0,-8 z m 0,12 24,0 0,12 -24,0 0,-12 z m 0,16 24,0 0,15.875 16,0 -28,28 -28,-28 16,0 0,-15.875 z"
         inkscape:connector-curvature="0"
         id="path2969"
         style="opacity:0.3;color:#000000;fill:#ff0000;fill-opacity:1;fill-rule:nonzero;stroke:none;stroke-width:4;marker:none;visibility:visible;display:inline;overflow:visible;enable-background:accumulate" />
    </clipPath>
    <filter
       color-interpolation-filters="sRGB"
       id="filter3743">
      <feGaussianBlur
         id="feGaussianBlur3745"
         stdDeviation="0.9590625" />
    </filter>
  </defs>
  <metadata
     id="metadata7">
    <rdf:RDF>
      <cc:Work
         rdf:about="">
        <dc:format>image/svg+xml</dc:format>
        <dc:type
           rdf:resource="http://purl.org/dc/dcmitype/StillImage" />
        <dc:title />
      </cc:Work>
    </rdf:RDF>
  </metadata>
  <g
     transform="translate(0,74)"
     id="layer1"
     style="display:inline">
    <path
       d="m -64,-61.875 0,8 24,0 0,-8 -24,0 z m 0,12 0,12 24,0 0,-12 -24,0 z m 0,16 0,15.875 -16,0 28,28 28,-28 -16,0 0,-15.875 -24,0 z"
       inkscape:connector-curvature="0"
       transform="translate(100,0)"
       clip-path="url(#clipPath2967)"
       id="path2958"
       style="opacity:0.2;fill:none;stroke:#ffffff;stroke-width:4;stroke-miterlimit:4;stroke-dasharray:none;display:inline;filter:url(#filter3743)" />
    <path
       d="m 36,-61.875 0,8 24,0 0,-8 -24,0 z m 0,12 0,12 24,0 0,-12 -24,0 z m 0,16 0,15.875 -16,0 28,28 28,-28 -16,0 0,-15.875 -24,0 z"
       inkscape:connector-curvature="0"
       id="Symbol"
       style="fill:url(#linearGradient2956);fill-opacity:1;stroke:none;display:inline" />
    <path
       d="m 36,-61.875 0,4 24,0 0,-4 -24,0 z m 0,12 0,4 24,0 0,-4 -24,0 z m 0,16 0,4 24,0 0,-4 -24,0 z M 20,-18 l 4,4 12,0 0,-4 -16,0 z m 40,0 0,4 12,0 4,-4 -16,0 z"
       inkscape:connector-curvature="0"
       id="path2990"
       style="opacity:0.3;fill:#000000;fill-opacity:1;stroke:none;display:inline" />
    <path
       d="m 36,-53.875 0,4 24,0 0,-4 -24,0 z m 0,16 0,4 24,0 0,-4 -24,0 z M 20,-14 l 28,28 28,-28 -4,0 -24,24 -24,-24 -4,0 z"
       inkscape:connector-curvature="0"
       id="path3781"
       style="opacity:0.3;fill:#ffffff;fill-opacity:1;stroke:none;display:inline" />
    <rect
       width="96"
       height="96"
       x="-100"
       y="-74"
       id="rect2942"
       style="opacity:0.3;color:#000000;fill:#ff0000;fill-opacity:1;fill-rule:nonzero;stroke:none;stroke-width:4;marker:none;visibility:visible;display:inline;overflow:visible;enable-background:accumulate" />
    <path
       d="m 36,12.125 0,8 24,0 0,-8 -24,0 z m 1.90625,1.90625 20.1875,0 0,4.1875 -20.1875,0 0,-4.1875 z M 36,24.125 l 0,12 24,0 0,-12 -24,0 z m 1.90625,1.90625 20.1875,0 0,8.1875 -20.1875,0 0,-8.1875 z M 36,40.125 36,56 20,56 48,84 76,56 l -16,0 0,-15.875 -24,0 z m 1.90625,1.90625 20.1875,0 0,13.96875 A 1.8938553,1.8938553 0 0 0 60,57.90625 l 11.40625,0 L 48,81.3125 24.59375,57.90625 36,57.90625 A 1.8938553,1.8938553 0 0 0 37.90625,56 l 0,-13.96875 z"
       inkscape:connector-curvature="0"
       transform="translate(0,-74)"
       id="path3747"
       style="opacity:0.3;fill:#000000;fill-opacity:1;stroke:none;display:inline" />
  </g>
</svg>
