<?xml version="1.0" encoding="UTF-8" standalone="no"?>
<!-- Created with Inkscape (http://www.inkscape.org/) -->

<svg
   xmlns:dc="http://purl.org/dc/elements/1.1/"
   xmlns:cc="http://creativecommons.org/ns#"
   xmlns:rdf="http://www.w3.org/1999/02/22-rdf-syntax-ns#"
   xmlns:svg="http://www.w3.org/2000/svg"
   xmlns="http://www.w3.org/2000/svg"
   xmlns:xlink="http://www.w3.org/1999/xlink"
   xmlns:inkscape="http://www.inkscape.org/namespaces/inkscape"
   version="1.0"
   width="96"
   height="96"
   id="svg2"
   style="display:inline">
  <defs
     id="defs4">
    <linearGradient
       x1="7.1904788"
       y1="6.9551144"
       x2="7.1904788"
       y2="18.319494"
       id="linearGradient4012"
       gradientUnits="userSpaceOnUse"
       gradientTransform="scale(1.1467263,0.8720476)">
      <stop
         id="stop4014"
         style="stop-color:#323232;stop-opacity:1"
         offset="0" />
      <stop
         id="stop4016"
         style="stop-color:#787878;stop-opacity:1"
         offset="1" />
    </linearGradient>
    <linearGradient
       x1="17.506266"
       y1="-42.696442"
       x2="17.506266"
       y2="-84.79258"
       id="linearGradient2884"
       xlink:href="#linearGradient4012"
       gradientUnits="userSpaceOnUse"
       gradientTransform="matrix(1.3690757,0,0,-1.3690757,28.199165,-112.91297)" />
    <clipPath
       id="clipPath3703">
      <path
         d="m -100,-74 0,96 96,0 0,-96 -96,0 z M -71.6875,-54.15625 -28.03125,-54 -28,-10.5 -42.09375,-24.59375 c -14.967412,6.310412 -22.381278,18.460048 -24.9375,28 -9.605951,-14.408924 -4.606056,-31.867968 9.4375,-43.46875 L -71.6875,-54.15625 z"
         inkscape:connector-curvature="0"
         id="path3705"
         style="opacity:0.3;color:#000000;fill:#ff0000;stroke:none;stroke-width:4;marker:none;visibility:visible;display:inline;overflow:visible;enable-background:accumulate" />
    </clipPath>
    <filter
       color-interpolation-filters="sRGB"
       id="filter3707">
      <feGaussianBlur
         id="feGaussianBlur3709"
         stdDeviation="0.76172645" />
    </filter>
  </defs>
  <metadata
     id="metadata7">
    <rdf:RDF>
      <cc:Work
         rdf:about="">
        <dc:format>image/svg+xml</dc:format>
        <dc:type
           rdf:resource="http://purl.org/dc/dcmitype/StillImage" />
        <dc:title />
      </cc:Work>
    </rdf:RDF>
  </metadata>
  <g
     transform="translate(0,74)"
     id="layer1"
     style="display:inline">
    <path
       d="m -71.685828,-54.171135 14.09736,14.097373 c -14.043556,11.600782 -19.062817,29.060098 -9.456866,43.469022 2.556222,-9.539952 9.98055,-21.668884 24.947962,-27.979296 L -28,-10.485304 -28.046592,-54 -71.685828,-54.171135 z"
       inkscape:connector-curvature="0"
       transform="translate(100,0)"
       clip-path="url(#clipPath3703)"
       id="path3693"
       style="opacity:0.2;fill:none;stroke:#ffffff;stroke-width:4;stroke-miterlimit:4;stroke-dasharray:none;display:inline;filter:url(#filter3707)" />
    <path
       d="m 28.314172,-54.171135 14.09736,14.097373 C 28.367976,-28.47298 23.348715,-11.013664 32.954666,3.39526 c 2.556222,-9.539952 9.98055,-21.668884 24.947962,-27.979296 L 72,-10.485304 71.953408,-54 28.314172,-54.171135 z"
       inkscape:connector-curvature="0"
       id="path28"
       style="fill:url(#linearGradient2884);fill-opacity:1;display:inline" />
    <path
       d="m 28.375,-54.125 4,4 L 72,-50 72,-54 28.375,-54.125 z M 40.25,-38.25 c -8.231264,7.674532 -12.674255,17.526752 -12.125,27.25 0.785141,-9.175564 5.8927,-18.221392 14.25,-25.125 L 40.25,-38.25 z"
       inkscape:connector-curvature="0"
       id="path3713"
       style="opacity:0.3;fill:#000000;fill-opacity:1;display:inline" />
    <path
       d="M 28.375,-50.125 40.25,-38.25 c 0.688652,-0.642074 1.385484,-1.264116 2.125,-1.875 l -10,-10 -4,0 z m 29.5,25.5 C 42.907588,-18.314588 35.556223,-6.164952 33,3.375 29.99814,-1.127788 28.441299,-5.923312 28.125,-10.75 27.651235,-4.587872 29.162351,1.618528 33,7.375 c 2.556223,-9.539952 9.907588,-21.689588 24.875,-28 L 72,-6.5 l 0,-4 -14.125,-14.125 z"
       inkscape:connector-curvature="0"
       id="path3722"
       style="opacity:0.3;fill:#ffffff;fill-opacity:1;display:inline" />
    <rect
       width="96"
       height="96"
       x="-100"
       y="-74"
       id="rect3691"
       style="opacity:0.3;color:#000000;fill:#ff0000;stroke:none;stroke-width:4;marker:none;visibility:visible;display:inline;overflow:visible;enable-background:accumulate" />
    <path
       d="M 28.3125,19.84375 42.40625,33.9375 c -14.043556,11.600782 -19.043451,29.059826 -9.4375,43.46875 2.556222,-9.539952 9.970088,-21.689588 24.9375,-28 L 72,63.5 71.96875,20 28.3125,19.84375 z m 5.03125,2.09375 36.5625,0.125 L 69.9375,58.5 59.375,47.9375 A 2.0722699,2.0722699 0 0 0 57.09375,47.5 C 43.656547,53.16526 36.254323,63.279726 32.65625,72.4375 26.734622,59.810991 31.518167,45.609631 43.71875,35.53125 A 2.0722699,2.0722699 0 0 0 43.875,32.46875 L 33.34375,21.9375 z"
       inkscape:connector-curvature="0"
       transform="translate(0,-74)"
       id="path3711"
       style="opacity:0.3;fill:#000000;fill-opacity:1;display:inline" />
  </g>
</svg>
