<?xml version="1.0" encoding="UTF-8" standalone="no"?>
<!-- Created with Inkscape (http://www.inkscape.org/) -->

<svg
   xmlns:dc="http://purl.org/dc/elements/1.1/"
   xmlns:cc="http://creativecommons.org/ns#"
   xmlns:rdf="http://www.w3.org/1999/02/22-rdf-syntax-ns#"
   xmlns:svg="http://www.w3.org/2000/svg"
   xmlns="http://www.w3.org/2000/svg"
   xmlns:xlink="http://www.w3.org/1999/xlink"
   xmlns:inkscape="http://www.inkscape.org/namespaces/inkscape"
   version="1.0"
   width="96"
   height="96"
   id="svg2"
   style="display:inline">
  <defs
     id="defs4">
    <linearGradient
       x1="20.758585"
       y1="1"
       x2="20.758585"
       y2="45.017357"
       id="linearGradient4427"
       xlink:href="#linearGradient3904"
       gradientUnits="userSpaceOnUse"
       gradientTransform="matrix(1.6744133,0,0,1.6744133,7.8140536,-64.51142)" />
    <clipPath
       id="clipPath3709">
      <path
         d="m -100,-74 0,96 96,0 0,-96 -96,0 z m 43.03125,12 9.9375,0 c 1.416764,0 2.5625,1.184002 2.5625,2.625 l 0,5.0625 c 2.533284,0.67497 4.972768,1.711925 7.1875,3 l 3.59375,-3.625 c 1.018936,-1.0188 2.623172,-1.064298 3.625,-0.0625 L -23,-47.9375 c 1.001928,1.001808 0.95642,2.606071 -0.0625,3.625 l -3.625,3.59375 c 1.288064,2.214735 2.325036,4.654221 3,7.1875 l 5.0625,0 c 1.440972,0 2.625,1.145734 2.625,2.5625 l 0,9.9375 c 0,1.416772 -1.184024,2.562532 -2.625,2.5625 l -5.0625,0 c -0.674964,2.533288 -1.711936,4.972776 -3,7.1875 l 3.625,3.59375 c 1.0188,1.018928 1.0643,2.623188 0.0625,3.625 L -30.0625,3 c -1.001808,1.001852 -2.60608,0.956424 -3.625,-0.0625 l -3.59375,-3.625 c -2.214728,1.288068 -4.654216,2.325032 -7.1875,3 l 0,5.0625 c 0,1.440988 -1.145724,2.625 -2.5625,2.625 l -9.9375,0 c -1.41678,0 -2.5625,-1.184012 -2.5625,-2.625 l 0,-5.0625 c -2.533279,-0.674968 -4.972769,-1.711932 -7.1875,-3 l -3.59375,3.625 C -71.331433,3.95642 -72.935699,4.001808 -73.9375,3 L -81,-4.0625 c -1.001887,-1.001808 -0.956431,-2.606068 0.0625,-3.625 l 3.625,-3.59375 c -1.28806,-2.214724 -2.325019,-4.654212 -3,-7.1875 l -5.0625,0 c -1.440987,0 -2.625,-1.145732 -2.625,-2.5625 l 0,-9.9375 c 0,-1.416771 1.18401,-2.5625 2.625,-2.5625 l 5.0625,0 c 0.67498,-2.533284 1.71192,-4.972769 3,-7.1875 l -3.625,-3.59375 c -1.018866,-1.018934 -1.064301,-2.623192 -0.0625,-3.625 L -73.9375,-55 c 0.500902,-0.500868 1.184448,-0.72445 1.84375,-0.71875 0.659304,0.0056 1.271773,0.271799 1.78125,0.78125 l 3.59375,3.625 c 2.214732,-1.288069 4.65422,-2.325036 7.1875,-3 l 0,-5.0625 c 0,-1.440988 1.14572,-2.625 2.5625,-2.625 z M -52,-36.875 c -6.007792,0 -10.875,4.867207 -10.875,10.875 0,6.007804 4.867208,10.875 10.875,10.875 6.007792,0 10.875,-4.867196 10.875,-10.875 0,-6.007793 -4.867196,-10.875 -10.875,-10.875 z"
         inkscape:connector-curvature="0"
         id="path3711"
         style="opacity:0.3;color:#000000;fill:#ff0000;fill-opacity:1;fill-rule:nonzero;stroke:none;stroke-width:4;marker:none;visibility:visible;display:inline;overflow:visible;enable-background:accumulate" />
    </clipPath>
    <filter
       color-interpolation-filters="sRGB"
       id="filter3713">
      <feGaussianBlur
         id="feGaussianBlur3715"
         stdDeviation="1.0799995" />
    </filter>
    <linearGradient
       x1="11"
       y1="3.9374998"
       x2="11"
       y2="18.083122"
       id="linearGradient3904"
       gradientUnits="userSpaceOnUse">
      <stop
         id="stop3906"
         style="stop-color:#323232;stop-opacity:1"
         offset="0" />
      <stop
         id="stop3908"
         style="stop-color:#787878;stop-opacity:1"
         offset="1" />
    </linearGradient>
  </defs>
  <metadata
     id="metadata7">
    <rdf:RDF>
      <cc:Work
         rdf:about="">
        <dc:format>image/svg+xml</dc:format>
        <dc:type
           rdf:resource="http://purl.org/dc/dcmitype/StillImage" />
        <dc:title />
      </cc:Work>
    </rdf:RDF>
  </metadata>
  <g
     transform="translate(0,74)"
     id="layer1"
     style="display:inline">
    <path
       d="m -56.97094,-61.999792 c -1.41678,0 -2.563956,1.175276 -2.563956,2.616264 l 0,5.075568 c -2.53328,0.674964 -4.95384,1.694479 -7.168572,2.982548 l -3.610458,-3.61045 c -0.509477,-0.509451 -1.119758,-0.779302 -1.779062,-0.784882 -0.659302,-0.0057 -1.330484,0.231685 -1.831386,0.732553 l -7.063934,7.063926 c -1.001801,1.001808 -0.966606,2.591526 0.05226,3.61046 l 3.610457,3.610445 c -1.28808,2.214731 -2.307595,4.635299 -2.982575,7.168583 l -5.075561,0 c -1.44099,0 -2.616276,1.147181 -2.616276,2.563952 l 0,9.941825 c 0,1.416768 1.175286,2.563952 2.616273,2.563952 l 5.07556,0 c 0.674981,2.533288 1.694497,4.953852 2.982557,7.168576 l -3.610458,3.610456 c -1.018931,1.018932 -1.054127,2.60864 -0.05224,3.610448 l 7.063934,7.063936 c 1.001801,1.001808 2.591515,0.9666 3.610448,-0.05232 l 3.610458,-3.610456 c 2.214731,1.288068 4.635292,2.307584 7.168571,2.982552 l 0,5.075564 c 0,1.440988 1.147176,2.616272 2.563956,2.616272 l 9.941824,0 c 1.416776,0 2.563948,-1.175284 2.563948,-2.616272 l 0,-5.075564 c 2.533284,-0.674968 4.953852,-1.694484 7.16858,-2.982552 l 3.610464,3.61046 c 1.01892,1.018924 2.60864,1.054132 3.610448,0.05228 l 7.063928,-7.063936 c 1.0018,-1.001812 0.9666,-2.591524 -0.0522,-3.610452 l -3.610436,-3.610464 c 1.288064,-2.214724 2.30758,-4.635292 2.982544,-7.16858 l 5.075576,0 C -17.175292,-18.465068 -16,-19.612244 -16,-21.029016 l 0,-9.94183 c 0,-1.416766 -1.175292,-2.563947 -2.616264,-2.563947 l -5.075576,0 c -0.674964,-2.533279 -1.69448,-4.953847 -2.982544,-7.168582 l 3.610456,-3.61045 c 1.01892,-1.018929 1.054128,-2.608643 0.0522,-3.610451 l -7.06392,-7.06394 c -1.001828,-1.001798 -2.591528,-0.9666 -3.610464,0.0522 l -3.610468,3.61046 c -2.214732,-1.288075 -4.635296,-2.307589 -7.16858,-2.982559 l 0,-5.075557 c 0,-1.440998 -1.147172,-2.616275 -2.563936,-2.616275 l -9.941828,0 z m 4.970912,25.116192 c 6.007804,0 10.883692,4.875891 10.883692,10.883684 0,6.007804 -4.8759,10.883684 -10.883692,10.883684 -6.007792,0 -10.883686,-4.87588 -10.883686,-10.883684 0,-6.007793 4.875894,-10.883684 10.883686,-10.883684 z"
       inkscape:connector-curvature="0"
       transform="translate(100,0)"
       clip-path="url(#clipPath3709)"
       id="path3700"
       style="opacity:0.2;fill:none;stroke:#ffffff;stroke-width:4;stroke-miterlimit:4;stroke-dasharray:none;marker:none;visibility:visible;display:block;overflow:visible;filter:url(#filter3713);enable-background:accumulate" />
    <path
       d="m 43.02906,-61.999792 c -1.41678,0 -2.563956,1.175276 -2.563956,2.616264 l 0,5.075568 c -2.53328,0.674964 -4.95384,1.694479 -7.168572,2.982548 l -3.610458,-3.61045 c -0.509477,-0.509451 -1.119758,-0.779302 -1.779062,-0.784882 -0.659302,-0.0057 -1.330484,0.231685 -1.831386,0.732553 l -7.063934,7.063926 c -1.001801,1.001808 -0.966606,2.591526 0.05226,3.61046 l 3.610457,3.610445 c -1.28808,2.214731 -2.307595,4.635299 -2.982575,7.168583 l -5.075561,0 c -1.44099,0 -2.616276,1.147181 -2.616276,2.563952 l 0,9.941825 c 0,1.416768 1.175286,2.563952 2.616273,2.563952 l 5.07556,0 c 0.674981,2.533288 1.694497,4.953852 2.982557,7.168576 l -3.610458,3.610456 c -1.018931,1.018932 -1.054127,2.60864 -0.05224,3.610448 l 7.063934,7.063936 c 1.001801,1.001808 2.591515,0.9666 3.610448,-0.05232 l 3.610458,-3.610456 C 35.51126,0.61366 37.931821,1.633176 40.4651,2.308144 l 0,5.075564 c 0,1.440988 1.147176,2.616272 2.563956,2.616272 l 9.941824,0 c 1.416776,0 2.563948,-1.175284 2.563948,-2.616272 l 0,-5.075564 c 2.533284,-0.674968 4.953852,-1.694484 7.16858,-2.982552 l 3.610464,3.61046 c 1.01892,1.018924 2.60864,1.054132 3.610448,0.05228 l 7.063928,-7.063936 c 1.0018,-1.001812 0.9666,-2.591524 -0.0522,-3.610452 l -3.610436,-3.610464 c 1.288064,-2.214724 2.30758,-4.635292 2.982544,-7.16858 l 5.075576,0 C 82.824708,-18.465068 84,-19.612244 84,-21.029016 l 0,-9.94183 c 0,-1.416766 -1.175292,-2.563947 -2.616264,-2.563947 l -5.075576,0 c -0.674964,-2.533279 -1.69448,-4.953847 -2.982544,-7.168582 l 3.610456,-3.61045 c 1.01892,-1.018929 1.054128,-2.608643 0.0522,-3.610451 l -7.06392,-7.06394 c -1.001828,-1.001798 -2.591528,-0.9666 -3.610464,0.0522 l -3.610468,3.61046 c -2.214732,-1.288075 -4.635296,-2.307589 -7.16858,-2.982559 l 0,-5.075557 c 0,-1.440998 -1.147172,-2.616275 -2.563936,-2.616275 l -9.941828,0 z m 4.970912,25.116192 c 6.007804,0 10.883692,4.875891 10.883692,10.883684 0,6.007804 -4.8759,10.883684 -10.883692,10.883684 -6.007792,0 -10.883686,-4.87588 -10.883686,-10.883684 0,-6.007793 4.875894,-10.883684 10.883686,-10.883684 z"
       inkscape:connector-curvature="0"
       id="rect3267"
       style="fill:url(#linearGradient4427);fill-opacity:1;fill-rule:nonzero;stroke:none;stroke-width:1;marker:none;visibility:visible;display:block;overflow:visible;enable-background:accumulate" />
    <path
       d="m 43,-61.999998 c -1.41678,0 -2.5,1.184012 -2.5,2.625 l 0,4 c 0,-1.440988 1.08322,-2.625 2.5,-2.625 l 10,0 c 1.416764,0 2.5,1.184002 2.5,2.625 l 0,-4 c 0,-1.440998 -1.083236,-2.625 -2.5,-2.625 l -10,0 z m -15.124999,6.25 c -0.659302,-0.0056 -1.249098,0.249132 -1.75,0.75 l -7.125,7.125 c -1.001801,1.001808 -0.89387,2.481066 0.125,3.5 l 0.125,0.25 6.875,-6.875 c 0.500902,-0.500868 1.090698,-0.755657 1.75,-0.75 0.659303,0.0056 1.240523,0.365548 1.75,0.875 l 3.625,3.5 c 2.214731,-1.28807 4.716719,-2.200036 7.249999,-2.875 l 0,-4 c -2.53328,0.674964 -5.035268,1.58693 -7.249999,2.875 l -3.625,-3.5 c -0.509477,-0.509452 -1.090697,-0.86942 -1.75,-0.875 z m 40.249999,0 c -0.65002,0.01092 -1.240532,0.3656 -1.75,0.875 l -3.625,3.5 c -2.214732,-1.288076 -4.716716,-2.200031 -7.25,-2.875 l 0,4 c 2.533284,0.674969 5.035268,1.586924 7.25,2.875 l 3.625,-3.5 c 1.018936,-1.0188 2.498172,-1.126798 3.5,-0.125 l 6.875,6.875 0.125,-0.25 c 1.01892,-1.018929 1.126928,-2.498192 0.125,-3.5 l -7.125,-7.125 c -0.500912,-0.500899 -1.09998,-0.760925 -1.75,-0.75 z m -46.749999,17.75 c -0.648901,1.437276 -1.214204,2.958232 -1.625,4.5 l -5.125,0 c -1.44099,0 -2.625,1.083228 -2.625,2.5 l 0,3.999998 c 0,-1.416768 1.18401,-2.5 2.625,-2.5 l 5.125,0 c 0.674981,-2.533281 1.58692,-5.035268 2.875,-7.249998 l -1.25,-1.25 z m 53.249999,0 -1.25,1.25 c 1.288064,2.214735 2.200036,4.716722 2.875,7.249998 l 5.125,0 c 1.440972,0 2.625,1.083236 2.625,2.5 l 0,-3.999998 c 0,-1.416766 -1.184028,-2.5 -2.625,-2.5 l -5.125,0 c -0.410788,-1.541765 -0.976104,-3.062724 -1.625,-4.5 z M 37.375001,-23.75 c -0.08934,0.561104 -0.25,1.163872 -0.25,1.75 0,6.007804 4.867207,10.875 10.874999,10.875 6.007792,0 10.875,-4.867196 10.875,-10.875 0,-0.586128 -0.16064,-1.188896 -0.25,-1.75 -1.015416,4.958032 -5.368184,8.625 -10.625,8.625 -5.256816,0 -9.609584,-3.666968 -10.624999,-8.625 z m -16,13.75 -2.25,2.375 c -1.018931,1.018932 -1.126887,2.498192 -0.125,3.5 l 0.25,0.25 3.375,-3.375 c -0.504141,-0.866832 -0.832692,-1.825684 -1.25,-2.75 z M 74.625,-10 c -0.417308,0.924316 -0.745856,1.883168 -1.25,2.75 l 3.375,3.375 0.25,-0.25 c 1.0018,-1.001812 0.8938,-2.481072 -0.125,-3.5 L 74.625,-10 z"
       inkscape:connector-curvature="0"
       id="path4379"
       style="opacity:0.3;fill:#000000;fill-opacity:1;fill-rule:nonzero;stroke:none;stroke-width:1;marker:none;visibility:visible;display:block;overflow:visible;enable-background:accumulate" />
    <path
       d="m 19.250001,-44.124998 -0.25,0.25 c -1.001801,1.001808 -0.89387,2.481066 0.125,3.5 l 2.25,2.375 c 0.417311,-0.924317 0.745851,-1.883165 1.25,-2.75 l -3.375,-3.375 z m 57.499999,0 -3.375,3.375 c 0.504144,0.866837 0.832692,1.825682 1.25,2.75 l 2.25,-2.375 c 1.01892,-1.018929 1.126928,-2.498192 0.125,-3.5 l -0.25,-0.25 z m -28.75,7.25 c -6.007792,0 -10.874999,4.867204 -10.874999,10.874998 0,0.586128 0.160656,1.188896 0.25,1.75 1.015415,-4.958028 5.368183,-8.624998 10.624999,-8.624998 5.256828,0 9.609588,3.66697 10.625,8.624998 0.08936,-0.561104 0.25,-1.163872 0.25,-1.75 0,-6.007794 -4.867196,-10.874998 -10.875,-10.874998 z M 12.000001,-21 l 0,4 c 0,1.416768 1.184013,2.5 2.625,2.5 l 5.125,0 c 0.410797,1.541772 0.976103,3.062728 1.625,4.5 l 1.25,-1.25 c -1.28806,-2.214724 -2.200019,-4.716712 -2.875,-7.25 l -5.125,0 c -1.440987,0 -2.625,-1.083232 -2.625,-2.5 z M 84,-21 c 0,1.416772 -1.184028,2.500032 -2.625,2.5 l -5.125,0 c -0.674964,2.533288 -1.586936,5.035276 -2.875,7.25 l 1.25,1.25 c 0.648896,-1.437276 1.214212,-2.958228 1.625,-4.5 l 5.125,0 C 82.815972,-14.499968 84,-15.583228 84,-17 l 0,-4 z m -64.749999,17.125 -0.125,0.25 c -1.018931,1.018932 -1.126887,2.498192 -0.125,3.5 l 7.125,7.125 c 1.001801,1.001808 2.481067,0.89392 3.5,-0.125 l 3.625,-3.5 C 35.464732,4.663068 37.966721,5.575032 40.5,6.25 l 0,-4 C 37.966721,1.575032 35.464732,0.663068 33.250001,-0.625 l -3.625,3.5 c -1.018933,1.01892 -2.498199,1.126808 -3.5,0.125 l -6.875,-6.875 z M 76.75,-3.875 69.875,3 c -1.001808,1.001852 -2.48108,0.893924 -3.5,-0.125 l -3.625,-3.5 C 60.535272,0.663068 58.033284,1.575032 55.5,2.25 l 0,4 c 2.533284,-0.674968 5.035272,-1.586932 7.25,-2.875 l 3.625,3.5 c 1.01892,1.018924 2.498192,1.126852 3.5,0.125 L 77,-0.125 c 1.0018,-1.001812 0.8938,-2.481072 -0.125,-3.5 l -0.125,-0.25 z m -36.25,11.25 0,4 C 40.5,12.815988 41.58322,14 43,14 l 10,0 c 1.416776,0 2.5,-1.184012 2.5,-2.625 l 0,-4 C 55.5,8.815988 54.416776,10 53,10 L 43,10 C 41.58322,10 40.5,8.815988 40.5,7.375 z"
       inkscape:connector-curvature="0"
       id="path4388"
       style="opacity:0.3;fill:#ffffff;fill-opacity:1;fill-rule:nonzero;stroke:none;stroke-width:1;marker:none;visibility:visible;display:block;overflow:visible;enable-background:accumulate" />
    <rect
       width="96"
       height="96"
       x="-100"
       y="-74"
       id="rect3698"
       style="opacity:0.3;color:#000000;fill:#ff0000;fill-opacity:1;fill-rule:nonzero;stroke:none;stroke-width:4;marker:none;visibility:visible;display:inline;overflow:visible;enable-background:accumulate" />
    <path
       d="m 43.03125,12 c -1.41678,0 -2.5625,1.184012 -2.5625,2.625 l 0,5.0625 c -2.53328,0.674964 -4.972768,1.711931 -7.1875,3 L 29.6875,19.0625 C 29.178023,18.553049 28.565554,18.28683 27.90625,18.28125 27.246948,18.27555 26.563402,18.499132 26.0625,19 L 19,26.0625 c -1.001801,1.001808 -0.956366,2.606066 0.0625,3.625 l 3.625,3.59375 c -1.28808,2.214731 -2.32502,4.654216 -3,7.1875 l -5.0625,0 c -1.44099,0 -2.625,1.145729 -2.625,2.5625 l 0,9.9375 c 0,1.416768 1.184013,2.5625 2.625,2.5625 l 5.0625,0 c 0.674981,2.533288 1.71194,4.972776 3,7.1875 l -3.625,3.59375 C 18.043569,67.331432 17.998113,68.935692 19,69.9375 L 26.0625,77 c 1.001801,1.001808 2.606067,0.95642 3.625,-0.0625 l 3.59375,-3.625 c 2.214731,1.288068 4.654221,2.325032 7.1875,3 l 0,5.0625 c 0,1.440988 1.14572,2.625 2.5625,2.625 l 9.9375,0 c 1.416776,0 2.5625,-1.184012 2.5625,-2.625 l 0,-5.0625 c 2.533284,-0.674968 4.972772,-1.711932 7.1875,-3 l 3.59375,3.625 c 1.01892,1.018924 2.623192,1.064352 3.625,0.0625 L 77,69.9375 c 1.0018,-1.001812 0.9563,-2.606072 -0.0625,-3.625 l -3.625,-3.59375 c 1.288064,-2.214724 2.325036,-4.654212 3,-7.1875 l 5.0625,0 C 82.815976,55.531282 84,54.385522 84,52.96875 l 0,-9.9375 c 0,-1.416766 -1.184028,-2.5625 -2.625,-2.5625 l -5.0625,0 c -0.674964,-2.533279 -1.711936,-4.972765 -3,-7.1875 l 3.625,-3.59375 C 77.95642,28.668571 78.001928,27.064308 77,26.0625 L 69.9375,19 c -1.001828,-1.001798 -2.606064,-0.9563 -3.625,0.0625 l -3.59375,3.625 c -2.214732,-1.288075 -4.654216,-2.32503 -7.1875,-3 l 0,-5.0625 c 0,-1.440998 -1.145736,-2.625 -2.5625,-2.625 l -9.9375,0 z m 0,2.0625 9.9375,0 c 0.267268,0 0.5,0.21514 0.5,0.5625 l 0,5.0625 a 2.0634175,2.0634175 0 0 0 1.53125,2 c 2.343712,0.62446 4.625947,1.582263 6.6875,2.78125 a 2.0634175,2.0634175 0 0 0 2.5,-0.34375 l 3.59375,-3.59375 c 0.274957,-0.27492 0.486492,-0.263502 0.6875,-0.0625 l 7.0625,7.0625 c 0.201041,0.201017 0.212478,0.41252 -0.0625,0.6875 L 71.875,31.8125 a 2.0634175,2.0634175 0 0 0 -0.34375,2.5 c 1.198983,2.061567 2.156798,4.343804 2.78125,6.6875 a 2.0634175,2.0634175 0 0 0 2,1.53125 l 5.0625,0 c 0.347316,0 0.5625,0.232753 0.5625,0.5 l 0,9.9375 c 0,0.267261 -0.215227,0.500008 -0.5625,0.5 l -5.0625,0 a 2.0634175,2.0634175 0 0 0 -2,1.53125 c -0.624452,2.343704 -1.582269,4.625948 -2.78125,6.6875 a 2.0634175,2.0634175 0 0 0 0.34375,2.5 l 3.59375,3.59375 c 0.2749,0.274935 0.263472,0.486526 0.0625,0.6875 l -7.0625,7.0625 c -0.201019,0.201028 -0.412574,0.212428 -0.6875,-0.0625 L 64.1875,71.875 a 2.0634175,2.0634175 0 0 0 -2.5,-0.34375 C 59.625947,72.730233 57.343707,73.688043 55,74.3125 a 2.0634175,2.0634175 0 0 0 -1.53125,2 l 0,5.0625 c 0,0.347354 -0.23272,0.5625 -0.5,0.5625 l -9.9375,0 c -0.267288,0 -0.5,-0.215142 -0.5,-0.5625 l 0,-5.0625 A 2.0634175,2.0634175 0 0 0 41,74.3125 c -2.343702,-0.624457 -4.625944,-1.582267 -6.6875,-2.78125 a 2.0634175,2.0634175 0 0 0 -2.5,0.34375 l -3.59375,3.59375 c -0.274927,0.274923 -0.486486,0.263515 -0.6875,0.0625 l -7.0625,-7.0625 c -0.201042,-0.201026 -0.212464,-0.412536 0.0625,-0.6875 L 24.125,64.1875 a 2.0634175,2.0634175 0 0 0 0.34375,-2.5 C 23.269775,59.625951 22.311972,57.34372 21.6875,55 a 2.0634175,2.0634175 0 0 0 -2,-1.53125 l -5.0625,0 c -0.347344,0 -0.5625,-0.232735 -0.5625,-0.5 l 0,-9.9375 c 0,-0.267273 0.215147,-0.5 0.5625,-0.5 l 5.0625,0 a 2.0634175,2.0634175 0 0 0 2,-1.53125 c 0.624473,-2.343724 1.582263,-4.625956 2.78125,-6.6875 a 2.0634175,2.0634175 0 0 0 -0.34375,-2.5 l -3.59375,-3.59375 c -0.274918,-0.274936 -0.2635,-0.486499 -0.0625,-0.6875 l 7.0625,-7.0625 c 0.05434,-0.05434 0.163173,-0.126561 0.34375,-0.125 0.114777,9.71e-4 0.164769,0.0085 0.34375,0.1875 L 31.8125,24.125 a 2.0634175,2.0634175 0 0 0 2.5,0.34375 C 36.374059,23.269765 38.656301,22.311952 41,21.6875 a 2.0634175,2.0634175 0 0 0 1.53125,-2 l 0,-5.0625 c 0,-0.347358 0.232712,-0.5625 0.5,-0.5625 z m 4.96875,21 c -7.122131,0 -12.9375,5.815368 -12.9375,12.9375 0,7.122141 5.815371,12.9375 12.9375,12.9375 7.122129,0 12.9375,-5.815359 12.9375,-12.9375 0,-7.122129 -5.815359,-12.9375 -12.9375,-12.9375 z m 0,2.0625 c 6.007804,0 10.875,4.867207 10.875,10.875 0,6.007804 -4.867208,10.875 -10.875,10.875 -6.007792,0 -10.875,-4.867196 -10.875,-10.875 0,-6.007793 4.867208,-10.875 10.875,-10.875 z"
       inkscape:connector-curvature="0"
       transform="translate(0,-74)"
       id="path3717"
       style="opacity:0.3;fill:#000000;fill-opacity:1;fill-rule:nonzero;stroke:none;stroke-width:1;marker:none;visibility:visible;display:block;overflow:visible;enable-background:accumulate" />
  </g>
</svg>
