/* XPM */
static char *browser[] = {
/* columns rows colors chars-per-pixel */
"48 48 214 2 ",
"   c #000000",
".  c #020408",
"X  c #153B5E",
"o  c #163E62",
"O  c #27527B",
"+  c #255583",
"@  c #265888",
"#  c #295B8C",
"$  c #335C81",
"%  c #2B5F90",
"&  c #34608C",
"*  c #39668F",
"=  c #2B6195",
"-  c #2D679D",
";  c #346594",
":  c #346B9E",
">  c #3C6C98",
",  c #2866A1",
"<  c #2E6AA3",
"1  c #266AAA",
"2  c #2E6FAD",
"3  c #306CA6",
"4  c #386DA0",
"5  c #306EAB",
"6  c #2F70AC",
"7  c #3471AC",
"8  c #3C77AE",
"9  c #2F72B0",
"0  c #2C76BD",
"q  c #3376B5",
"w  c #3578B7",
"e  c #3D7BB4",
"r  c #357BBC",
"t  c #397CBC",
"y  c #476888",
"u  c #4E6F8E",
"i  c #516F8D",
"p  c #446C92",
"a  c #4D7196",
"s  c #44729D",
"d  c #517293",
"f  c #577A9A",
"g  c #5C7C9B",
"h  c #4B79A5",
"j  c #4B7DAE",
"k  c #557FA7",
"l  c #4079B0",
"z  c #407DB8",
"x  c #2679C6",
"c  c #2A7BC6",
"v  c #2C7DC9",
"b  c #347EC4",
"n  c #397FC1",
"m  c #317FC9",
"M  c #3D80BE",
"N  c #64829E",
"B  c #6D869E",
"V  c #5B80A4",
"C  c #5481AC",
"Z  c #4C82B5",
"A  c #5485B3",
"S  c #5986B0",
"D  c #5C89B5",
"F  c #5489BC",
"G  c #5A8BB8",
"H  c #6382A0",
"J  c #6B88A3",
"K  c #6688A8",
"L  c #748CA3",
"P  c #7C91A7",
"I  c #648CB1",
"U  c #6A8FB1",
"Y  c #6693BF",
"T  c #6893BD",
"R  c #7493B2",
"E  c #7E9AB4",
"W  c #7C9CBB",
"Q  c #2F80CB",
"!  c #3680C6",
"~  c #3B82C4",
"^  c #3482CB",
"/  c #3B85CB",
"(  c #3E89CF",
")  c #3786D1",
"_  c #3B86D0",
"`  c #3E89D1",
"'  c #4185C4",
"]  c #4488C7",
"[  c #4C8AC5",
"{  c #4087C9",
"}  c #438ACD",
"|  c #4A8DCD",
" . c #558EC4",
".. c #518EC9",
"X. c #4D90CF",
"o. c #5E92C3",
"O. c #5492CD",
"+. c #5A94CC",
"@. c #5D98CE",
"#. c #438DD2",
"$. c #488FD2",
"%. c #4790D4",
"&. c #4C92D4",
"*. c #4D94D9",
"=. c #5395D4",
"-. c #5997D2",
";. c #5698D4",
":. c #5B9AD5",
">. c #5397D8",
",. c #5599DA",
"<. c #5B9CDA",
"1. c #6395C4",
"2. c #6798C6",
"3. c #6096CB",
"4. c #6499CC",
"5. c #6A9DCE",
"6. c #739AC1",
"7. c #789DC1",
"8. c #709FCC",
"9. c #649ED4",
"0. c #619ED9",
"q. c #5CA0DF",
"w. c #7CA1C3",
"e. c #73A0CD",
"r. c #7CA4CC",
"t. c #67A1D6",
"y. c #6BA1D4",
"u. c #62A1DC",
"i. c #6CA5DB",
"p. c #73A5D6",
"a. c #78A7D6",
"s. c #76A8D7",
"d. c #78A8D7",
"f. c #71A7DB",
"g. c #73A9DE",
"h. c #7BACDC",
"j. c #7FB0DF",
"k. c #5C9FE0",
"l. c #5FA2E1",
"z. c #65A6E3",
"x. c #67A8E5",
"c. c #6BAAE5",
"v. c #73ADE4",
"b. c #7AAFE1",
"n. c #76B0E6",
"m. c #7BB2E5",
"M. c #7EB4E8",
"N. c #8598AB",
"B. c #8D9FB0",
"V. c #80A0BF",
"C. c #93A8BC",
"Z. c #9CACBB",
"A. c #85A4C2",
"S. c #87A8C7",
"D. c #8AA8C6",
"F. c #80A6CB",
"G. c #83A9CD",
"H. c #8AAECE",
"J. c #90ADCA",
"K. c #9DB1C4",
"L. c #94B1CC",
"P. c #80ABD4",
"I. c #8AAFD1",
"U. c #81AFDA",
"Y. c #8EB0D2",
"T. c #83B2DD",
"R. c #8BB5DD",
"E. c #9AB7D4",
"W. c #93B7D9",
"Q. c #94BADF",
"!. c #A2B2C2",
"~. c #A9B6C2",
"^. c #AFBBC7",
"/. c #A3B6C9",
"(. c #A6B8CA",
"). c #ADBDCC",
"_. c #83B5E4",
"`. c #8CB9E3",
"'. c #83B7E8",
"]. c #86B9E8",
"[. c #8BBBE9",
"{. c #91BBE3",
"}. c #91BEEA",
"|. c #B6C2CD",
" X c #ABC0D4",
".X c #BAC6D2",
"XX c #BFC9D3",
"oX c #B1C5D8",
"OX c #B6C9DB",
"+X c #BBCAD9",
"@X c #99C0E5",
"#X c #96C1EA",
"$X c #9FC7EB",
"%X c #A4C6E7",
"&X c #A0C6E9",
"*X c #A5C9EC",
"=X c #AACCED",
"-X c #B3D3F2",
";X c #C2CCD5",
":X c #C5CFD8",
">X c #C5D0DA",
",X c #CBD3DB",
"<X c #D1D8DE",
"1X c #CCD7E2",
"2X c #D2DBE4",
"3X c #D9DFE4",
"4X c #D5DFE8",
"5X c #E8EBEF",
"6X c #EBEEF1",
"7X c #EFF2F5",
"8X c #F2F4F6",
"9X c #F4F6F8",
"0X c #FFFFFF",
"qX c None",
/* pixels */
"qXqXqXqXqXqXqXqXqXqXqXqXqXqXqXqXqXqXqXqXqXqXqXqXqXqXqXqXqXqXqXqXqXqXqXqXqXqXqXqXqXqXqXqXqXqXqXqX",
"qXqXqXqXqXqXqXqXqXqXqXqXqXqXqXqXqXqXqXqXqXqXqXqXqXqXqXqXqXqXqXqXqXqXqXqXqXqXqXqXqXqXqXqXqXqXqXqX",
"qXqXqXqXqXqXqXqXqXqXqXqXqXqXqXqXqXqXqXqXqXqXqXqXqXqXqXqXqXqXqXqXqXqXqXqXqXqXqXqXqXqXqXqXqXqXqXqX",
"qXqXqXqXF.%X-X-X-X-X-X-X-X-X-X-X-X-X&X@X@X@X@X{.@X@X=X-X-X-X-X-X-X-X-X-X-X-X-X-X-X-X%XS.qXqXqXqX",
"qXqXqX5.m.c.z.z.,.l.*.k.k.c.c.c.c.v.,.^ ^ ^ ^ ^ ^ ,.n.c.c.c.c.c.c.x.c.x.x.x.x.x.x.x.v.#XW qXqXqX",
"qXqXqX_.,.) ) %.l.<.z.` ) #.<.v.c.v.c./ ^ ^ ^ ^ ^ q.n.c.c.c.c.c.x.c.c.c.c.x.x.x.z.z.l.*.{.qXqXqX",
"qXqXqX[.z.#.) ) z.<.k.<.%.#./ <.n.n.M.<.~ ! ! ~ / i.n.c.c.c.c.c.c.c.v.c.<.>.z.z.z.z.z.l.[.qXqXqX",
"qXqXqXu.%.*.%.,.z.l.#.u.<.m.| / ].M.'.i./ / / t ' j.M.n.v.v.c.c.v.v.v.$./ / $.l.z.z.l.,.c.qXqXqX",
"qXqXqX<.^ ^ #._ #.#./ } <.M.g.{ ;.'.[.g.' / ~ I V._.'.M.m.v.c.v.v.'.;.( / ( / #.k.*._ ^ 0.qXqXqX",
"qXqXqX:.^ ^ ^ / / / ( :.v.].-.{ 9.].}.9.{ ' 8./.!.a.-.-.m.v.v.v.'.M.] } $.{ &.u.#.^ ^ ^ ;.qXqXqX",
"qXqXqX:.^ ^ ^ / / / X.m.i.[._.=.b.].[._.] +.I.>X>Xe.t.v.M.v.n.'.[.O.] h.| } / } / ^ ^ ^ ;.qXqXqX",
"qXqXqX;.^ ^ ^ / / { v.M._._.t.$X#X].].[.t.p.6.9X9XY b.M.b.v.m.].t.] } {.] { { / ! ^ ^ ^ ;.qXqXqX",
"qXqXqX=.^ ^ ^ ! / { _.[.[._.] p.`.}._._.'.h.A.0X0XW i.v.v.b.M.[.i.| O.=XT.[ ' / / ! ^ ^ =.qXqXqX",
"qXqXqX=.m b ! / ~ ' @.#X*X{.' ' ' _.[.b.v.5./.0X0X/.4.v.m.M.f.#X*Xh.h.=X+.' / / ! ! m ^ =.qXqXqX",
"qXqXqX=.m m ! ~ ~ ] { ] `.T.' ' ~ [ }.M.g.o.2X0X0X2X1.g.m.p...*X*X4.R.t./ { ' / ~ ! m m &.qXqXqX",
"qXqXqXX.b m ! ! / ~ ~ { [ [ ' ' ' [ T.p.r.OX0X0X0X0XoXr.i.T.O.{...' ~ ' ' ' / / ! ! m b O.qXqXqX",
"qXqXqXO.b m b n ~ ' ' ' ~ ' ' [ `.%XA 2X0X0X0X0X0X0X0X0X2XH.a.~ ~ ' ~ / / ~ / ~ ~ b m b $.qXqXqX",
"qXqXqX| c m b b ~ ~ n ' ' M ~ M  .D.8X0X0X0X0X0X0X0X0X0X0X7XA.e M M ' Z ~  .y.i.n { =.c | qXqXqX",
"qXqXqX=.b b b m n ~ ' n n t n U.S.7X0X0X0X^.L d u L ^.0X0X0X6XA Q.a.Q.' ' h.=X&X! O.>.b } qXqXqX",
"qXqXqX-.c c b b n n ~ ~ t ' p.G.2X0X0X6XB h F  . .F h B 5X0X0X3XE.*Xp.d.d.' t n n ~ g.c ] qXqXqX",
"qXqXqXu.^ m b b b ~ n ~ ~ +.{.w.0X0X0XJ A -.<.u.u.<.@.G P 0X0X0XU R.*X%X=X@Xi.n b c n c { qXqXqX",
"qXqXqXu.:.m b r n n n n t U.e.).0X0X^.j -.u.u.u.u.q.i.a.R ~.0X0XK.8 a.R.R.Q.d.n n b b c { qXqXqX",
"qXqXqX<.<.=.{ b b +.W.I.W oX4X0X0X0XR ..<.<.0.q.<.u.f.].G H 0X0X0X1XL.D 7 w t b b b ..m } qXqXqX",
"qXqXqX<.>.0.i.t j ).2X9X0X0X0X0X0X0Xk +.<.<.<.<.<.u.v.h.6 * 0X0X0X0X0X0X9X+XS.W 9 c / | <.qXqXqX",
"qXqXqX,.&.,.u.S p N.;X9X0X0X0X0X0X0XS -.<.<.<.<.<.t.b.3.9 > 0X0X0X0X0X0X8X|.P N < 0 c b <.qXqXqX",
"qXqXqX*.%.&.,.@.1.k % O B Z.,X0X0X0XW =.,.<.;.<.,.u.h.O.2 K 0X0X0X>XB.i O # - 5 1.! X.<.,.qXqXqX",
"qXqXqX&.%.%.&.,.0.i.p.F j U d ~.0X0X.Xo.:.<.>.>.,.<.i.a.< (.0X0XZ.+ % 4 7 q r b / :.<.=.&.qXqXqX",
"qXqXqX&.#.#.&.&.>.:.u.c.T.3.7 a 0X0X0XD.9.<.<.,.,.<.u.a.W 0X0X0Xa 2 r r n n n b r / <.*.&.qXqXqX",
"qXqXqX%.` ` %.%.*.*.>.t._.y.w = ;X0X0X6XL.y.9.,.=.=.O.w.7X0X0X,XW ' t n n n ! ! ~ u.=.#.$.qXqXqX",
"qXqXqX%.` %.%.%.&.&.=.<.j.] n 5 & 5X0X0X0X+XL.2.o.r.oX0X0X0X6Xf r.4.t ~ n ~ n b -.0.&.#.#.qXqXqX",
"qXqXqX` ` ` #.#.&.%.&.<.h.' n w < u 5X0X0X0X0X0X0X0X0X0X0X6Xg Z i.T.n n ~ n ~ ~ f.,.#.` #.qXqXqX",
"qXqXqX` _ ` ` #.#.$.&.,.i.s.n n w - $ XX0X0X0X0X0X0X0X0X:Xp l O.t.T.n ~ ~ ! ! ~ u.&.` ` _ qXqXqX",
"qXqXqX) _ ` ` #.#.$.%.&.<.m.9.t n r < @ y Z.0X0X0X0XZ.d ; Z } &.u.h.~ ~ ~ ! ~ / :.} ` / ) qXqXqX",
"qXqXqX) ) _ _ ` ` #.} %.=.t.`.] n n n q < % 3X0X0X,X: e { } %.%.;.j.~ ~ ~ / ! :.=.^ _ ) / qXqXqX",
"qXqXqX) ) ^ ) ` ` #.#.$.%.;.T.:.~ b b n ~ T !.0X0XC.e $.%.} %.%.=.i.X.~ ~ ~ | ;.$./ ) ) ^ qXqXqX",
"qXqXqX^ ^ ^ / ^ ( ( ( #.} =.h.| n ~ n ~ _.2.K 0X0XV M } %.} } } &.<.:.! / ~ >.%.( / ^ ^ ^ qXqXqX",
"qXqXqX^ ^ ) ^ ) / ( ( ` #.&.f./ ~ ~ ~ t.i.X.4 9X7X4 ~ ` #.` ` #.} =.:.{ / X.&.#.) ^ ^ ) ^ qXqXqX",
"qXqXqX^ v v ^ ) ) _ / ( } &.0.~ ~ / t.i.>.} 7 .X|.7 ( ` ( ( ( ( } #.%.=.&.%.` / ^ ) v Q ^ qXqXqX",
"qXqXqX^ v ^ Q ^ ^ ^ ^ / / %.=./ ! =.t.&.} ( w E E 0 / / / _ / ( / ( ( ` } / / ^ ^ v Q Q ^ qXqXqX",
"qXqXqXv v Q v Q Q Q ^ ^ ^ } } / } ;.$.( / ^ r s s r ^ / ^ / ) ^ ^ ^ ^ / ^ ^ ^ Q Q v v v v qXqXqX",
"qXqXqXv c v v v Q Q ^ v ^ / / ^ } ( / ^ ^ ^ b , , m ^ ^ ^ ^ ^ ^ ) m m ) m m v v v v v v v qXqXqX",
"qXqXqXv x c c c v v v v v ^ ^ / ^ ! Q Q v v v 0 0 v v v v v v v v v v v v v v c v c v x v qXqXqX",
"qXqXqX1 x x x x x x v x x Q ^ ^ Q v v v v v v v c v v v v c v v c c v x v c x c x x x x 1 qXqXqX",
"qXqXqXo v x x x x x x x x x x v v x x x c c x x x c c x x c c x v c c x x x x c x x x c o qXqXqX",
"qXqXqX. X 1 m ^ ^ ^ ^ / / ( ( } } } $.$.X.X.X.&.&.&.X.| $.$.} } _ ( / / / ^ ^ ^ ^ v 1 o . qXqXqX",
"qXqXqXqXqX                                                                            qXqXqXqXqX",
"qXqXqXqXqXqXqXqXqXqXqXqXqXqXqXqXqXqXqXqXqXqXqXqXqXqXqXqXqXqXqXqXqXqXqXqXqXqXqXqXqXqXqXqXqXqXqXqX",
"qXqXqXqXqXqXqXqXqXqXqXqXqXqXqXqXqXqXqXqXqXqXqXqXqXqXqXqXqXqXqXqXqXqXqXqXqXqXqXqXqXqXqXqXqXqXqXqX"
};
