/* XPM */
static char *browser[] = {
/* columns rows colors chars-per-pixel */
"32 32 144 2 ",
"   c #000000",
".  c #0E2B46",
"X  c #295D8F",
"o  c #3F678C",
"O  c #2C679F",
"+  c #3A6996",
"@  c #2469A9",
"#  c #346EA5",
"$  c #3E70A0",
"%  c #3E78AF",
"&  c #2C77B9",
"*  c #3476B4",
"=  c #3B79B4",
"-  c #357BBD",
";  c #3C7FBF",
":  c #4C6F92",
">  c #4F7498",
",  c #557A9E",
"<  c #597C9D",
"1  c #4F7BA4",
"2  c #527CA2",
"3  c #2779C7",
"4  c #2A7BC6",
"5  c #2C7DC9",
"6  c #347EC4",
"7  c #397FC1",
"8  c #307FC9",
"9  c #67829E",
"0  c #4D83B6",
"q  c #4582BC",
"w  c #5083B3",
"e  c #5886B1",
"r  c #5189BD",
"t  c #5E8DB9",
"y  c #6084A4",
"u  c #6D88A3",
"i  c #6B8EAD",
"p  c #738CA4",
"a  c #7E96AC",
"s  c #6B96BF",
"d  c #7092B1",
"f  c #2F80CA",
"g  c #3680C6",
"h  c #3B82C4",
"j  c #3582CB",
"k  c #3B85CB",
"l  c #3E88CE",
"z  c #3A86D0",
"x  c #3D89D0",
"c  c #4285C4",
"v  c #4889C7",
"b  c #4186C9",
"n  c #438ACD",
"m  c #4A8DCD",
"M  c #508BC3",
"N  c #508FCA",
"B  c #5B91C5",
"V  c #5491CB",
"C  c #5A94CA",
"Z  c #438DD2",
"A  c #498FD1",
"S  c #4C92D4",
"D  c #4591D8",
"F  c #4D95D9",
"G  c #5295D4",
"H  c #5A97D0",
"J  c #5698D6",
"K  c #5D9AD5",
"L  c #5397D8",
"P  c #5599DA",
"I  c #5C9DDB",
"U  c #6896C0",
"Y  c #6F99C1",
"T  c #6299CD",
"R  c #6C9DCC",
"E  c #749CC1",
"W  c #649ED4",
"Q  c #689ED1",
"!  c #619FDA",
"~  c #6EA0CE",
"^  c #7BA1C7",
"/  c #75A1CB",
"(  c #79A3C8",
")  c #67A1D7",
"_  c #6CA2D5",
"`  c #63A1DB",
"'  c #6CA5DC",
"]  c #6EA8DE",
"[  c #74A5D4",
"{  c #7BA8D4",
"}  c #70A6D8",
"|  c #75AADC",
" . c #7AABDB",
".. c #5EA1E0",
"X. c #65A5E3",
"o. c #6CAAE5",
"O. c #73ADE4",
"+. c #78ADE0",
"@. c #77B0E5",
"#. c #7CB1E5",
"$. c #809BB3",
"%. c #85A3BF",
"&. c #83A5C6",
"*. c #8DA9C3",
"=. c #82A8CD",
"-. c #93ADC5",
";. c #9AB1C6",
":. c #98B4CE",
">. c #86ACD1",
",. c #83AED9",
"<. c #8CB0D2",
"1. c #84B1DC",
"2. c #8AB5DF",
"3. c #9EB8D1",
"4. c #91B6D9",
"5. c #A4B5C5",
"6. c #ABB7C3",
"7. c #ACBAC6",
"8. c #AEBCC9",
"9. c #A7BCD0",
"0. c #82B5E4",
"q. c #8BB8E5",
"w. c #82B6E8",
"e. c #85B8E8",
"r. c #8ABBE8",
"t. c #96BEE3",
"y. c #90BEEA",
"u. c #B6C3CE",
"i. c #B5C4D2",
"p. c #B9C6D2",
"a. c #9AC1E6",
"s. c #96C1EC",
"d. c #99C4EC",
"f. c #A4C8EA",
"g. c #C3CFDA",
"h. c #C3D0DD",
"j. c #CAD3DC",
"k. c #D1D8DE",
"l. c #D2DBE4",
"z. c #E1E6EB",
"x. c #E5E9ED",
"c. c #EBEEF1",
"v. c #FFFFFF",
"b. c None",
/* pixels */
"b.b.b.b.b.b.b.b.b.b.b.b.b.b.b.b.b.b.b.b.b.b.b.b.b.b.b.b.b.b.b.b.",
"b.b.b.b.b.b.b.b.b.b.b.b.b.b.b.b.b.b.b.b.b.b.b.b.b.b.b.b.b.b.b.b.",
"b.b.s t.d.d.s.s.d.d.d.d.#.| |  .| q.d.d.s.d.d.d.d.d.d.d.t.b.b.b.",
"b.b.| D D I ..P Z X.O.o.! j j j Z O.o.o.o.o.o.o.o.X.X.X.P 0.b.b.",
"b.b.O.S z P L X.P l ` @.#.k k k A +.O.o.o.o.O.o.F I X.X.X.@.b.b.",
"b.b.L Z Z F S Z ' | m @.r.v k 0 ( w.@.O.o.@.+.Z l k P P Z P b.b.",
"b.b.S j j k k J O.' m #.y.v C ;.-.) o.@.@.w.! A n n L j j S b.b.",
"b.b.S j j k m #.q.#.r.r.r.} [ p.i.| @.+.#.w.v | v b k j j S b.b.",
"b.b.A g 6 k G r.d.v _ q.0.#.~ x.x.T O.@.0.0.V a.) b k k 6 A b.b.",
"b.b.m 8 k k h V t.c c V q.O.Y v.v.E O.+.} f.} 2.v k h j 8 m b.b.",
"b.b.n 8 6 h h c v c c Q | =.l.v.v.l.=. ._ N c c b h h 6 6 n b.b.",
"b.b.n 6 6 h h c h h v <.h.v.v.v.v.v.v.j.s ; c h h W N k k n b.b.",
"b.b.m 6 6 6 h h ; c 1.g.v.c.a , , a c.v.p.4.,.T v 1.Q k S k b.b.",
"b.b.H 4 6 6 h 7 ; 2.&.v.c.2 B K K B y c.v.&.t.a.a.Q 6 6 n k b.b.",
"b.b.I G 6 6 7 V q =.l.v.$.C I ..! ` { a v.j.t / [ Q 6 6 6 k b.b.",
"b.b.P I H = 9.g.x.v.v.v.e K I I ! ] [ + v.v.v.z.9.E r 6 v G b.b.",
"b.b.F F W 1 p 6.z.v.v.v.t I P P I O.M + v.v.v.z.5.9 , & 6 G b.b.",
"b.b.S S F W R w 2 9 k.v.*.K P P P O.C d v.j.o X O * ; m I L b.b.",
"b.b.Z Z A F J o.1.* > v.c.( K K J I E c.v.9 = - ; - 6 n L S b.b.",
"b.b.Z Z Z S L J  .6 # 8.v.c.:.R T =.c.v.p.^ N 6 h g h ) S Z b.b.",
"b.b.x x Z A S K | h - + 7.v.v.v.v.v.v.u.2 ) } ; h g V J x x b.b.",
"b.b.z x x Z Z F ) _ 6 * O : j.v.v.j.< % m I _ h h h S S x z b.b.",
"b.b.j z z Z Z Z G 0.h 7 - * y v.v.1 c Z S J _ h h h P l z z b.b.",
"b.b.j z z l Z n A ' b h g Q t z.z.= n Z n S ` k h S S z j j b.b.",
"b.b.j j j z z z n ` k g V ' v 5.5.; n x x Z G S m S z z j j b.b.",
"b.b.5 f j j j k l L h m ) A k i i k z z l k l Z Z k j f f 5 b.b.",
"b.b.5 5 f f j j j m k L l j j # # j z j j j j j g j f f 5 5 b.b.",
"b.b.5 5 5 5 5 5 f k j j g f f & & g f f 5 g f g 5 5 5 3 5 5 b.b.",
"b.b.@ 3 3 3 3 5 5 5 g 5 3 4 3 5 3 5 5 5 3 3 5 3 5 3 3 3 3 @ b.b.",
"b.b.. @ 5 5 5 g j j j k k l l n l l k k k k j j j 8 5 5 @ . b.b.",
"b.b.b.b.                                                b.b.b.b.",
"b.b.b.b.b.b.b.b.b.b.b.b.b.b.b.b.b.b.b.b.b.b.b.b.b.b.b.b.b.b.b.b."
};
