/* XPM */
static char *browser[] = {
/* columns rows colors chars-per-pixel */
"22 22 130 2 ",
"   c #000000",
".  c #0E2D4B",
"X  c #174B7D",
"o  c #1E5B94",
"O  c #1C5F9F",
"+  c #295681",
"@  c #2A5986",
"#  c #1E619D",
"$  c #3B6085",
"%  c #37638C",
"&  c #27659F",
"*  c #1F63A3",
"=  c #2367A5",
"-  c #236AAB",
";  c #296EAE",
":  c #306CA7",
">  c #246FB7",
",  c #2E71B1",
"<  c #2572BB",
"1  c #2B75BC",
"2  c #3374B2",
"3  c #3C7AB5",
"4  c #357CBE",
"5  c #3D7DBA",
"6  c #56738E",
"7  c #436D94",
"8  c #42709B",
"9  c #4A739A",
"0  c #537595",
"q  c #5F7D97",
"w  c #507598",
"e  c #5E7D9A",
"r  c #497CAA",
"t  c #2676C0",
"y  c #2977C1",
"u  c #277AC7",
"i  c #2C7AC4",
"p  c #2C7DCA",
"a  c #317EC6",
"s  c #327FC8",
"d  c #5F809F",
"f  c #5383AF",
"g  c #5B82AC",
"h  c #4680B3",
"j  c #4584BF",
"k  c #5485B4",
"l  c #5F8BB3",
"z  c #6D8BA6",
"x  c #6D8CAA",
"c  c #6492BC",
"v  c #7596B4",
"b  c #7095B8",
"n  c #7B9EBF",
"m  c #2E80CA",
"M  c #3C82C5",
"N  c #3381CC",
"B  c #3A85CD",
"V  c #3F88CD",
"C  c #3987D0",
"Z  c #3C88D0",
"A  c #4987C3",
"S  c #4D8AC4",
"D  c #4186C9",
"F  c #448ACE",
"G  c #4A8ECF",
"H  c #578FC6",
"J  c #518FCB",
"K  c #4E90CF",
"L  c #5D92C3",
"P  c #428CD3",
"I  c #4B91D3",
"U  c #4C94D8",
"Y  c #5294D4",
"T  c #5B97D0",
"R  c #5698D5",
"E  c #5B99D4",
"W  c #539ADC",
"Q  c #5A9FDF",
"!  c #6898C5",
"~  c #6A9ACA",
"^  c #749DC3",
"/  c #629DD4",
"(  c #609EDA",
")  c #71A1CF",
"_  c #7DA6CE",
"`  c #6FA2D2",
"'  c #64A1DA",
"]  c #6CA4DB",
"[  c #6CA8DF",
"{  c #78A6D1",
"}  c #75ABDD",
"|  c #7AACDA",
" . c #5B9FE0",
".. c #64A5E3",
"X. c #6DA9E3",
"o. c #75ADE4",
"O. c #7EB2E3",
"+. c #899EB1",
"@. c #8DA5BB",
"#. c #97A7B6",
"$. c #80A1C1",
"%. c #81A6CA",
"&. c #84A9CD",
"*. c #8EACC9",
"=. c #90AECC",
"-. c #86B4DF",
";. c #94B6D4",
":. c #9ABDDE",
">. c #AABCCD",
",. c #84B6E5",
"<. c #88B7E3",
"1. c #8CBAE4",
"2. c #94BFE9",
"3. c #B3C5D7",
"4. c #BEC8D3",
"5. c #96C2EC",
"6. c #9AC5EE",
"7. c #C3CDD6",
"8. c #C9D2DC",
"9. c #C8D5E1",
"0. c #D0D9E3",
"q. c #D8DFE5",
"w. c #DAE1E7",
"e. c #DCE3EA",
"r. c #E2E5E8",
"t. c #E4E9EE",
"y. c #ECEFF1",
"u. c #EFF1F5",
"i. c #FFFFFF",
"p. c None",
/* pixels */
"p.p.p.p.p.p.p.p.p.p.p.p.p.p.p.p.p.p.p.p.p.p.",
"p.p.1.5.5.5.6.6.,.} } O.6.6.6.6.6.6.6.5.p.p.",
"p.,.U W  .P P X.o.a 1 S X.....X... ...o.,.p.",
"p.o.P I B Q E / ,.< f $.o... .X.N N U I o.p.",
"p.] N s F O.] <.,.2 >.>._ ..' E V i B N ] p.",
"p.' N i E o.M 1.' ~ e.e.H ] O.F <.a p N ' p.",
"p.E N i i | < < | c i.i.c :.-.T J y i s / p.",
"p.E i i y < < ` =.9.i.i.9.&.5 < < y a i E p.",
"p.E i i < > j ^ u.i.i.i.i.u.l _ H T J Y Y p.",
"p.' i < < - %.9.i.w.e 0 8.i.8.n ;.2.1 i K p.",
"p.' H h 3.t.i.i.i.x 3 3 z i.i.i.e.*.k 2 R p.",
"p.R 3 e #.r.i.i.i.b V F v i.i.i.q.+.9 ; R p.",
"p.U M 3 r q 6 7.i.w.! L 0.i.4.$ + o * A U p.",
"p.I Z B V ~ O @ y.i.i.i.i.y.9 k - < a I I p.",
"p.P C C Z ] 4 * + 4.i.i.7.% 2 ) t y G P P p.",
"p.C C N N B } < = % i.i.9 , M ] y i I B B p.",
"p.N N N N N E i 1 g q.w.& a N Y s F N N N p.",
"p.p p p p N I s / , @.@.; i p p P N p p m p.",
"p.p p p p p B F N < 8 8 1 p p p p p p p p p.",
"p.- p u u p m m i t # # < u u u i u u u - p.",
"p.. ; B B V F F G G S A G G P F F B B ; . p.",
"p.p.p.                                p.p.p."
};
